<svg version="1.1" xmlns="http://www.w3.org/2000/svg" xmlns:xlink="http://www.w3.org/1999/xlink" width="78" height="72.13614" viewBox="0,0,78,72.13614"><g transform="translate(-280.11174,-159.5)"><g stroke="none" stroke-miterlimit="10"><path d="M332.8837,200.5h-25.7674c-3.50245,-0.01098 -6.33902,-2.84755 -6.35,-6.35v-26.3c0.01098,-3.50245 2.84755,-6.33902 6.35,-6.35h25.7674c3.50245,0.01098 6.33902,2.84755 6.35,6.35v26.3c-0.01098,3.50245 -2.84755,6.33902 -6.35,6.35z" fill="#000000" stroke-width="1" opacity="0.1"/><path d="M332.8837,198.5h-25.7674c-3.50245,-0.01098 -6.33902,-2.84755 -6.35,-6.35v-26.3c0.01098,-3.50245 2.84755,-6.33902 6.35,-6.35h25.7674c3.50245,0.01098 6.33902,2.84755 6.35,6.35v26.3c-0.01098,3.50245 -2.84755,6.33902 -6.35,6.35z" fill="#fefe86" stroke-width="1" opacity="0.95"/><path d="M310.24327,189.75673v-5.15655l9.71602,-9.71602l-1.5741,-1.51982l1.5741,-1.51982l2.06262,2.06262l3.36533,-3.36533c0.09047,-0.09047 0.20355,-0.16284 0.33925,-0.21712c0.1357,-0.05428 0.27592,-0.08142 0.42067,-0.08142c0.14475,0 0.28045,0.02714 0.4071,0.08142c0.12665,0.05428 0.24426,0.12665 0.35282,0.21712l2.55113,2.55113c0.09047,0.10856 0.16284,0.22617 0.21712,0.35282c0.05428,0.12665 0.08142,0.26235 0.08142,0.4071c0,0.14475 -0.02714,0.28497 -0.08142,0.42067c-0.05428,0.1357 -0.12665,0.24878 -0.21712,0.33925l-3.33819,3.33819l2.06262,2.1169l-1.54696,1.54696l-1.51982,-1.5741l-9.71602,9.71602zM312.41445,187.58555h2.1169l9.01039,-9.06467l-2.06262,-2.06262l-9.06467,9.01039zM324.5459,176.45827l2.60541,-2.60541l-1.00417,-1.00417l-2.60541,2.60541zM324.5459,176.45827l-1.00417,-1.00417z" fill="#000000" stroke-width="1"/><path d="M289.47856,231.63614c-5.17315,0 -9.36681,-4.19366 -9.36681,-9.36681v-2.04367c0,-5.17315 4.19366,-9.36681 9.36681,-9.36681h59.26638c5.17315,0 9.36681,4.19366 9.36681,9.36681v2.04367c0,5.17315 -4.19366,9.36681 -9.36681,9.36681z" fill="#fefe86" stroke-width="0"/><text transform="translate(288.02084,225.41263) scale(0.30663,0.30663)" font-size="40" xml:space="preserve" fill="#000000" stroke-width="1" font-family="&quot;Microsoft YaHei&quot;, &quot;微软雅黑&quot;, STXihei, &quot;华文细黑&quot;" font-weight="normal" text-anchor="start"><tspan x="0" dy="0">Modplayer</tspan></text></g></g></svg>