<svg version="1.1" xmlns="http://www.w3.org/2000/svg" xmlns:xlink="http://www.w3.org/1999/xlink" width="153" height="41" viewBox="0,0,153,41"><g transform="translate(-163.5,-159.5)"><g data-paper-data="{&quot;isPaintingLayer&quot;:true}" fill-rule="nonzero" stroke="none" stroke-width="1" stroke-linecap="butt" stroke-linejoin="miter" stroke-miterlimit="10" stroke-dasharray="" stroke-dashoffset="0" style="mix-blend-mode: normal"><path d="M310.15,200.5h-140.3c-3.50245,-0.01098 -6.33902,-2.84755 -6.35,-6.35v-26.3c0.01098,-3.50245 2.84755,-6.33902 6.35,-6.35h140.3c3.50245,0.01098 6.33902,2.84755 6.35,6.35v26.3c-0.01098,3.50245 -2.84755,6.33902 -6.35,6.35z" fill="#000000" opacity="0.1"/><path d="M310.15,198.5h-140.3c-3.50245,-0.01098 -6.33902,-2.84755 -6.35,-6.35v-26.3c0.01098,-3.50245 2.84755,-6.33902 6.35,-6.35h140.3c3.50245,0.01098 6.33902,2.84755 6.35,6.35v26.3c-0.01098,3.50245 -2.84755,6.33902 -6.35,6.35z" fill="#ffffff" opacity="0.95"/><path d="M264.37379,181.07c0,-0.75 -0.81,-1 -2.3,-1.42c-1.49,-0.42 -3.62,-1.21 -3.62,-3.46c0,-2.09 1.53,-3.47 4.32,-3.47c1.46928,-0.03535 2.92282,0.3091 4.22,1l-0.56,2.36c-1.12029,-0.60882 -2.36591,-0.95102 -3.64,-1c-1,0 -1.48,0.34 -1.48,1c0,0.66 1,1 2.38,1.41c1.73,0.46 3.53,1.26 3.53,3.4c0,2.14 -1.66,3.65 -4.61,3.65c-1.50631,0.0231 -2.99568,-0.32008 -4.34,-1l0.54,-2.38c1.18346,0.6401 2.50464,0.98326 3.85,1c1.02,-0.03 1.71,-0.4 1.71,-1.09z" fill="#000000"/><path d="M213.57893,184.25v-11.28h8.23v2.28h-5.42v2.17h4.35v2.28h-4.35v2.2h5.42v2.35z" fill="#000000"/><path d="M248.87379,184.25v-11.28h8.2v2.28h-5.42v2.17h4.35v2.28h-4.35v2.2h5.42v2.35z" fill="#000000"/><path d="M274.19379,175.37v8.88h-2.87v-8.88h-3.58v-2.4h10v2.4z" fill="#000000"/><path d="M241.80288,184.48857c-2.93,0 -4.95,-1.44 -4.95,-4.61v-6.9h2.84v6.53c0,1.69 0.69,2.58 2.18,2.58c1.49,0 2.06,-0.72 2.06,-2.47v-6.64h2.84v6.66c0,3.25 -1.94,4.85 -4.97,4.85z" fill="#000000"/><path d="M205.11621,184.25h-2.86v-11.28h4.52c3,0 4.55,1.39 4.55,3.57c0.04228,1.47225 -0.8962,2.79429 -2.3,3.24l2.89,4.47h-3.22l-2.25,-3.78l-1.32,0.11zM206.50621,178.42c1.22,-0.09 1.89,-0.59 1.89,-1.67c0,-1.08 -0.68,-1.5 -2.12,-1.5h-1.21v3.19z" fill="#000000"/><path d="M235.4955,184.81543l-1.12619,2.32747l-4.98528,-2.6428c-0.07931,0.01578 -0.16094,0.01578 -0.24025,0c-1.58906,0.11281 -3.14887,-0.46943 -4.27533,-1.59589c-1.12646,-1.12646 -1.70871,-2.68627 -1.59589,-4.27533c-0.09001,-1.60044 0.4991,-3.16462 1.62251,-4.30805c1.12342,-1.14343 2.67696,-1.76006 4.27874,-1.69831c1.59127,-0.12148 3.15677,0.45474 4.28955,1.57888c1.13279,1.12414 1.72099,2.68516 1.6117,4.27733c0.06287,2.00372 -0.95857,3.88592 -2.67283,4.92522zM229.14377,174.99502c-1.90702,0 -3.00318,1.50159 -3.00318,3.55877c0,2.05718 1.11118,3.66388 3.00318,3.66388c1.89201,0 3.00318,-1.42651 3.00318,-3.5888c0,-2.16229 -1.09616,-3.63385 -3.00318,-3.63385z" fill="#000000"/></g></g></svg>