<svg version="1.1" xmlns="http://www.w3.org/2000/svg" xmlns:xlink="http://www.w3.org/1999/xlink" width="1126" height="445" viewBox="0,0,1126,445"><g transform="translate(464,42)"><g stroke="none" stroke-miterlimit="10"><path d="M98,402v-444h564v444z" fill="#d5eef5"/><g fill="#e1f5fa"><path d="M138,370v20c0,4.41828 -3.58172,8 -8,8h-20c-4.41828,0 -8,-3.58172 -8,-8v-20c0,-4.41828 3.58172,-8 8,-8h20c4.41828,0 8,3.58172 8,8z"/><path d="M218,370v20c0,4.41828 -3.58172,8 -8,8h-20c-4.41828,0 -8,-3.58172 -8,-8v-20c0,-4.41828 3.58172,-8 8,-8h20c4.41828,0 8,3.58172 8,8z"/><path d="M138,290v20c0,4.41828 -3.58172,8 -8,8h-20c-4.41828,0 -8,-3.58172 -8,-8v-20c0,-4.41828 3.58172,-8 8,-8h20c4.41828,0 8,3.58172 8,8z"/><path d="M218,290v20c0,4.41828 -3.58172,8 -8,8h-20c-4.41828,0 -8,-3.58172 -8,-8v-20c0,-4.41828 3.58172,-8 8,-8h20c4.41828,0 8,3.58172 8,8z"/><path d="M298,370v20c0,4.41828 -3.58172,8 -8,8h-20c-4.41828,0 -8,-3.58172 -8,-8v-20c0,-4.41828 3.58172,-8 8,-8h20c4.41828,0 8,3.58172 8,8z"/><path d="M378,370v20c0,4.41828 -3.58172,8 -8,8h-20c-4.41828,0 -8,-3.58172 -8,-8v-20c0,-4.41828 3.58172,-8 8,-8h20c4.41828,0 8,3.58172 8,8z"/><path d="M298,290v20c0,4.41828 -3.58172,8 -8,8h-20c-4.41828,0 -8,-3.58172 -8,-8v-20c0,-4.41828 3.58172,-8 8,-8h20c4.41828,0 8,3.58172 8,8z"/><path d="M378,290v20c0,4.41828 -3.58172,8 -8,8h-20c-4.41828,0 -8,-3.58172 -8,-8v-20c0,-4.41828 3.58172,-8 8,-8h20c4.41828,0 8,3.58172 8,8z"/><path d="M458,370v20c0,4.41828 -3.58172,8 -8,8h-20c-4.41828,0 -8,-3.58172 -8,-8v-20c0,-4.41828 3.58172,-8 8,-8h20c4.41828,0 8,3.58172 8,8z"/><path d="M538,370v20c0,4.41828 -3.58172,8 -8,8h-20c-4.41828,0 -8,-3.58172 -8,-8v-20c0,-4.41828 3.58172,-8 8,-8h20c4.41828,0 8,3.58172 8,8z"/><path d="M458,290v20c0,4.41828 -3.58172,8 -8,8h-20c-4.41828,0 -8,-3.58172 -8,-8v-20c0,-4.41828 3.58172,-8 8,-8h20c4.41828,0 8,3.58172 8,8z"/><path d="M538,290v20c0,4.41828 -3.58172,8 -8,8h-20c-4.41828,0 -8,-3.58172 -8,-8v-20c0,-4.41828 3.58172,-8 8,-8h20c4.41828,0 8,3.58172 8,8z"/><path d="M618,370v20c0,4.41828 -3.58172,8 -8,8h-20c-4.41828,0 -8,-3.58172 -8,-8v-20c0,-4.41828 3.58172,-8 8,-8h20c4.41828,0 8,3.58172 8,8z"/><path d="M618,290v20c0,4.41828 -3.58172,8 -8,8h-20c-4.41828,0 -8,-3.58172 -8,-8v-20c0,-4.41828 3.58172,-8 8,-8h20c4.41828,0 8,3.58172 8,8z"/><path d="M138,210v20c0,4.41828 -3.58172,8 -8,8h-20c-4.41828,0 -8,-3.58172 -8,-8v-20c0,-4.41828 3.58172,-8 8,-8h20c4.41828,0 8,3.58172 8,8z"/><path d="M218,210v20c0,4.41828 -3.58172,8 -8,8h-20c-4.41828,0 -8,-3.58172 -8,-8v-20c0,-4.41828 3.58172,-8 8,-8h20c4.41828,0 8,3.58172 8,8z"/><path d="M138,130v20c0,4.41828 -3.58172,8 -8,8h-20c-4.41828,0 -8,-3.58172 -8,-8v-20c0,-4.41828 3.58172,-8 8,-8h20c4.41828,0 8,3.58172 8,8z"/><path d="M218,130v20c0,4.41828 -3.58172,8 -8,8h-20c-4.41828,0 -8,-3.58172 -8,-8v-20c0,-4.41828 3.58172,-8 8,-8h20c4.41828,0 8,3.58172 8,8z"/><path d="M298,210v20c0,4.41828 -3.58172,8 -8,8h-20c-4.41828,0 -8,-3.58172 -8,-8v-20c0,-4.41828 3.58172,-8 8,-8h20c4.41828,0 8,3.58172 8,8z"/><path d="M378,210v20c0,4.41828 -3.58172,8 -8,8h-20c-4.41828,0 -8,-3.58172 -8,-8v-20c0,-4.41828 3.58172,-8 8,-8h20c4.41828,0 8,3.58172 8,8z"/><path d="M298,130v20c0,4.41828 -3.58172,8 -8,8h-20c-4.41828,0 -8,-3.58172 -8,-8v-20c0,-4.41828 3.58172,-8 8,-8h20c4.41828,0 8,3.58172 8,8z"/><path d="M378,130v20c0,4.41828 -3.58172,8 -8,8h-20c-4.41828,0 -8,-3.58172 -8,-8v-20c0,-4.41828 3.58172,-8 8,-8h20c4.41828,0 8,3.58172 8,8z"/><path d="M458,210v20c0,4.41828 -3.58172,8 -8,8h-20c-4.41828,0 -8,-3.58172 -8,-8v-20c0,-4.41828 3.58172,-8 8,-8h20c4.41828,0 8,3.58172 8,8z"/><path d="M538,210v20c0,4.41828 -3.58172,8 -8,8h-20c-4.41828,0 -8,-3.58172 -8,-8v-20c0,-4.41828 3.58172,-8 8,-8h20c4.41828,0 8,3.58172 8,8z"/><path d="M458,130v20c0,4.41828 -3.58172,8 -8,8h-20c-4.41828,0 -8,-3.58172 -8,-8v-20c0,-4.41828 3.58172,-8 8,-8h20c4.41828,0 8,3.58172 8,8z"/><path d="M538,130v20c0,4.41828 -3.58172,8 -8,8h-20c-4.41828,0 -8,-3.58172 -8,-8v-20c0,-4.41828 3.58172,-8 8,-8h20c4.41828,0 8,3.58172 8,8z"/><path d="M618,210v20c0,4.41828 -3.58172,8 -8,8h-20c-4.41828,0 -8,-3.58172 -8,-8v-20c0,-4.41828 3.58172,-8 8,-8h20c4.41828,0 8,3.58172 8,8z"/><path d="M618,130v20c0,4.41828 -3.58172,8 -8,8h-20c-4.41828,0 -8,-3.58172 -8,-8v-20c0,-4.41828 3.58172,-8 8,-8h20c4.41828,0 8,3.58172 8,8z"/><path d="M138,50v20c0,4.41828 -3.58172,8 -8,8h-20c-4.41828,0 -8,-3.58172 -8,-8v-20c0,-4.41828 3.58172,-8 8,-8h20c4.41828,0 8,3.58172 8,8z"/><path d="M218,50v20c0,4.41828 -3.58172,8 -8,8h-20c-4.41828,0 -8,-3.58172 -8,-8v-20c0,-4.41828 3.58172,-8 8,-8h20c4.41828,0 8,3.58172 8,8z"/><path d="M138,-30v20c0,4.41828 -3.58172,8 -8,8h-20c-4.41828,0 -8,-3.58172 -8,-8v-20c0,-4.41828 3.58172,-8 8,-8h20c4.41828,0 8,3.58172 8,8z"/><path d="M218,-30v20c0,4.41828 -3.58172,8 -8,8h-20c-4.41828,0 -8,-3.58172 -8,-8v-20c0,-4.41828 3.58172,-8 8,-8h20c4.41828,0 8,3.58172 8,8z"/><path d="M298,50v20c0,4.41828 -3.58172,8 -8,8h-20c-4.41828,0 -8,-3.58172 -8,-8v-20c0,-4.41828 3.58172,-8 8,-8h20c4.41828,0 8,3.58172 8,8z"/><path d="M378,50v20c0,4.41828 -3.58172,8 -8,8h-20c-4.41828,0 -8,-3.58172 -8,-8v-20c0,-4.41828 3.58172,-8 8,-8h20c4.41828,0 8,3.58172 8,8z"/><path d="M298,-30v20c0,4.41828 -3.58172,8 -8,8h-20c-4.41828,0 -8,-3.58172 -8,-8v-20c0,-4.41828 3.58172,-8 8,-8h20c4.41828,0 8,3.58172 8,8z"/><path d="M378,-30v20c0,4.41828 -3.58172,8 -8,8h-20c-4.41828,0 -8,-3.58172 -8,-8v-20c0,-4.41828 3.58172,-8 8,-8h20c4.41828,0 8,3.58172 8,8z"/><path d="M458,50v20c0,4.41828 -3.58172,8 -8,8h-20c-4.41828,0 -8,-3.58172 -8,-8v-20c0,-4.41828 3.58172,-8 8,-8h20c4.41828,0 8,3.58172 8,8z"/><path d="M538,50v20c0,4.41828 -3.58172,8 -8,8h-20c-4.41828,0 -8,-3.58172 -8,-8v-20c0,-4.41828 3.58172,-8 8,-8h20c4.41828,0 8,3.58172 8,8z"/><path d="M458,-30v20c0,4.41828 -3.58172,8 -8,8h-20c-4.41828,0 -8,-3.58172 -8,-8v-20c0,-4.41828 3.58172,-8 8,-8h20c4.41828,0 8,3.58172 8,8z"/><path d="M538,-30v20c0,4.41828 -3.58172,8 -8,8h-20c-4.41828,0 -8,-3.58172 -8,-8v-20c0,-4.41828 3.58172,-8 8,-8h20c4.41828,0 8,3.58172 8,8z"/><path d="M618,50v20c0,4.41828 -3.58172,8 -8,8h-20c-4.41828,0 -8,-3.58172 -8,-8v-20c0,-4.41828 3.58172,-8 8,-8h20c4.41828,0 8,3.58172 8,8z"/><path d="M618,-30v20c0,4.41828 -3.58172,8 -8,8h-20c-4.41828,0 -8,-3.58172 -8,-8v-20c0,-4.41828 3.58172,-8 8,-8h20c4.41828,0 8,3.58172 8,8z"/><path d="M178,330v20c0,4.41828 -3.58172,8 -8,8h-20c-4.41828,0 -8,-3.58172 -8,-8v-20c0,-4.41828 3.58172,-8 8,-8h20c4.41828,0 8,3.58172 8,8z"/><path d="M258,330v20c0,4.41828 -3.58172,8 -8,8h-20c-4.41828,0 -8,-3.58172 -8,-8v-20c0,-4.41828 3.58172,-8 8,-8h20c4.41828,0 8,3.58172 8,8z"/><path d="M178,250v20c0,4.41828 -3.58172,8 -8,8h-20c-4.41828,0 -8,-3.58172 -8,-8v-20c0,-4.41828 3.58172,-8 8,-8h20c4.41828,0 8,3.58172 8,8z"/><path d="M258,250v20c0,4.41828 -3.58172,8 -8,8h-20c-4.41828,0 -8,-3.58172 -8,-8v-20c0,-4.41828 3.58172,-8 8,-8h20c4.41828,0 8,3.58172 8,8z"/><path d="M338,330v20c0,4.41828 -3.58172,8 -8,8h-20c-4.41828,0 -8,-3.58172 -8,-8v-20c0,-4.41828 3.58172,-8 8,-8h20c4.41828,0 8,3.58172 8,8z"/><path d="M418,330v20c0,4.41828 -3.58172,8 -8,8h-20c-4.41828,0 -8,-3.58172 -8,-8v-20c0,-4.41828 3.58172,-8 8,-8h20c4.41828,0 8,3.58172 8,8z"/><path d="M338,250v20c0,4.41828 -3.58172,8 -8,8h-20c-4.41828,0 -8,-3.58172 -8,-8v-20c0,-4.41828 3.58172,-8 8,-8h20c4.41828,0 8,3.58172 8,8z"/><path d="M418,250v20c0,4.41828 -3.58172,8 -8,8h-20c-4.41828,0 -8,-3.58172 -8,-8v-20c0,-4.41828 3.58172,-8 8,-8h20c4.41828,0 8,3.58172 8,8z"/><path d="M498,330v20c0,4.41828 -3.58172,8 -8,8h-20c-4.41828,0 -8,-3.58172 -8,-8v-20c0,-4.41828 3.58172,-8 8,-8h20c4.41828,0 8,3.58172 8,8z"/><path d="M578,330v20c0,4.41828 -3.58172,8 -8,8h-20c-4.41828,0 -8,-3.58172 -8,-8v-20c0,-4.41828 3.58172,-8 8,-8h20c4.41828,0 8,3.58172 8,8z"/><path d="M498,250v20c0,4.41828 -3.58172,8 -8,8h-20c-4.41828,0 -8,-3.58172 -8,-8v-20c0,-4.41828 3.58172,-8 8,-8h20c4.41828,0 8,3.58172 8,8z"/><path d="M578,250v20c0,4.41828 -3.58172,8 -8,8h-20c-4.41828,0 -8,-3.58172 -8,-8v-20c0,-4.41828 3.58172,-8 8,-8h20c4.41828,0 8,3.58172 8,8z"/><path d="M658,330v20c0,4.41828 -3.58172,8 -8,8h-20c-4.41828,0 -8,-3.58172 -8,-8v-20c0,-4.41828 3.58172,-8 8,-8h20c4.41828,0 8,3.58172 8,8z"/><path d="M658,250v20c0,4.41828 -3.58172,8 -8,8h-20c-4.41828,0 -8,-3.58172 -8,-8v-20c0,-4.41828 3.58172,-8 8,-8h20c4.41828,0 8,3.58172 8,8z"/><path d="M178,170v20c0,4.41828 -3.58172,8 -8,8h-20c-4.41828,0 -8,-3.58172 -8,-8v-20c0,-4.41828 3.58172,-8 8,-8h20c4.41828,0 8,3.58172 8,8z"/><path d="M258,170v20c0,4.41828 -3.58172,8 -8,8h-20c-4.41828,0 -8,-3.58172 -8,-8v-20c0,-4.41828 3.58172,-8 8,-8h20c4.41828,0 8,3.58172 8,8z"/><path d="M178,90v20c0,4.41828 -3.58172,8 -8,8h-20c-4.41828,0 -8,-3.58172 -8,-8v-20c0,-4.41828 3.58172,-8 8,-8h20c4.41828,0 8,3.58172 8,8z"/><path d="M258,90v20c0,4.41828 -3.58172,8 -8,8h-20c-4.41828,0 -8,-3.58172 -8,-8v-20c0,-4.41828 3.58172,-8 8,-8h20c4.41828,0 8,3.58172 8,8z"/><path d="M338,170v20c0,4.41828 -3.58172,8 -8,8h-20c-4.41828,0 -8,-3.58172 -8,-8v-20c0,-4.41828 3.58172,-8 8,-8h20c4.41828,0 8,3.58172 8,8z"/><path d="M418,170v20c0,4.41828 -3.58172,8 -8,8h-20c-4.41828,0 -8,-3.58172 -8,-8v-20c0,-4.41828 3.58172,-8 8,-8h20c4.41828,0 8,3.58172 8,8z"/><path d="M338,90v20c0,4.41828 -3.58172,8 -8,8h-20c-4.41828,0 -8,-3.58172 -8,-8v-20c0,-4.41828 3.58172,-8 8,-8h20c4.41828,0 8,3.58172 8,8z"/><path d="M418,90v20c0,4.41828 -3.58172,8 -8,8h-20c-4.41828,0 -8,-3.58172 -8,-8v-20c0,-4.41828 3.58172,-8 8,-8h20c4.41828,0 8,3.58172 8,8z"/><path d="M498,170v20c0,4.41828 -3.58172,8 -8,8h-20c-4.41828,0 -8,-3.58172 -8,-8v-20c0,-4.41828 3.58172,-8 8,-8h20c4.41828,0 8,3.58172 8,8z"/><path d="M578,170v20c0,4.41828 -3.58172,8 -8,8h-20c-4.41828,0 -8,-3.58172 -8,-8v-20c0,-4.41828 3.58172,-8 8,-8h20c4.41828,0 8,3.58172 8,8z"/><path d="M498,90v20c0,4.41828 -3.58172,8 -8,8h-20c-4.41828,0 -8,-3.58172 -8,-8v-20c0,-4.41828 3.58172,-8 8,-8h20c4.41828,0 8,3.58172 8,8z"/><path d="M578,90v20c0,4.41828 -3.58172,8 -8,8h-20c-4.41828,0 -8,-3.58172 -8,-8v-20c0,-4.41828 3.58172,-8 8,-8h20c4.41828,0 8,3.58172 8,8z"/><path d="M658,170v20c0,4.41828 -3.58172,8 -8,8h-20c-4.41828,0 -8,-3.58172 -8,-8v-20c0,-4.41828 3.58172,-8 8,-8h20c4.41828,0 8,3.58172 8,8z"/><path d="M658,90v20c0,4.41828 -3.58172,8 -8,8h-20c-4.41828,0 -8,-3.58172 -8,-8v-20c0,-4.41828 3.58172,-8 8,-8h20c4.41828,0 8,3.58172 8,8z"/><path d="M178,10v20c0,4.41828 -3.58172,8 -8,8h-20c-4.41828,0 -8,-3.58172 -8,-8v-20c0,-4.41828 3.58172,-8 8,-8h20c4.41828,0 8,3.58172 8,8z"/><path d="M258,10v20c0,4.41828 -3.58172,8 -8,8h-20c-4.41828,0 -8,-3.58172 -8,-8v-20c0,-4.41828 3.58172,-8 8,-8h20c4.41828,0 8,3.58172 8,8z"/><path d="M338,10v20c0,4.41828 -3.58172,8 -8,8h-20c-4.41828,0 -8,-3.58172 -8,-8v-20c0,-4.41828 3.58172,-8 8,-8h20c4.41828,0 8,3.58172 8,8z"/><path d="M418,10v20c0,4.41828 -3.58172,8 -8,8h-20c-4.41828,0 -8,-3.58172 -8,-8v-20c0,-4.41828 3.58172,-8 8,-8h20c4.41828,0 8,3.58172 8,8z"/><path d="M498,10v20c0,4.41828 -3.58172,8 -8,8h-20c-4.41828,0 -8,-3.58172 -8,-8v-20c0,-4.41828 3.58172,-8 8,-8h20c4.41828,0 8,3.58172 8,8z"/><path d="M578,10v20c0,4.41828 -3.58172,8 -8,8h-20c-4.41828,0 -8,-3.58172 -8,-8v-20c0,-4.41828 3.58172,-8 8,-8h20c4.41828,0 8,3.58172 8,8z"/><path d="M658,10v20c0,4.41828 -3.58172,8 -8,8h-20c-4.41828,0 -8,-3.58172 -8,-8v-20c0,-4.41828 3.58172,-8 8,-8h20c4.41828,0 8,3.58172 8,8z"/></g><path d="M-464,403v-444h564v444z" fill="#d5eef5"/><g fill="#e1f5fa"><path d="M-424,371v20c0,4.41828 -3.58172,8 -8,8h-20c-4.41828,0 -8,-3.58172 -8,-8v-20c0,-4.41828 3.58172,-8 8,-8h20c4.41828,0 8,3.58172 8,8z"/><path d="M-344,371v20c0,4.41828 -3.58172,8 -8,8h-20c-4.41828,0 -8,-3.58172 -8,-8v-20c0,-4.41828 3.58172,-8 8,-8h20c4.41828,0 8,3.58172 8,8z"/><path d="M-424,291v20c0,4.41828 -3.58172,8 -8,8h-20c-4.41828,0 -8,-3.58172 -8,-8v-20c0,-4.41828 3.58172,-8 8,-8h20c4.41828,0 8,3.58172 8,8z"/><path d="M-344,291v20c0,4.41828 -3.58172,8 -8,8h-20c-4.41828,0 -8,-3.58172 -8,-8v-20c0,-4.41828 3.58172,-8 8,-8h20c4.41828,0 8,3.58172 8,8z"/><path d="M-264,371v20c0,4.41828 -3.58172,8 -8,8h-20c-4.41828,0 -8,-3.58172 -8,-8v-20c0,-4.41828 3.58172,-8 8,-8h20c4.41828,0 8,3.58172 8,8z"/><path d="M-184,371v20c0,4.41828 -3.58172,8 -8,8h-20c-4.41828,0 -8,-3.58172 -8,-8v-20c0,-4.41828 3.58172,-8 8,-8h20c4.41828,0 8,3.58172 8,8z"/><path d="M-264,291v20c0,4.41828 -3.58172,8 -8,8h-20c-4.41828,0 -8,-3.58172 -8,-8v-20c0,-4.41828 3.58172,-8 8,-8h20c4.41828,0 8,3.58172 8,8z"/><path d="M-184,291v20c0,4.41828 -3.58172,8 -8,8h-20c-4.41828,0 -8,-3.58172 -8,-8v-20c0,-4.41828 3.58172,-8 8,-8h20c4.41828,0 8,3.58172 8,8z"/><path d="M-104,371v20c0,4.41828 -3.58172,8 -8,8h-20c-4.41828,0 -8,-3.58172 -8,-8v-20c0,-4.41828 3.58172,-8 8,-8h20c4.41828,0 8,3.58172 8,8z"/><path d="M-24,371v20c0,4.41828 -3.58172,8 -8,8h-20c-4.41828,0 -8,-3.58172 -8,-8v-20c0,-4.41828 3.58172,-8 8,-8h20c4.41828,0 8,3.58172 8,8z"/><path d="M-104,291v20c0,4.41828 -3.58172,8 -8,8h-20c-4.41828,0 -8,-3.58172 -8,-8v-20c0,-4.41828 3.58172,-8 8,-8h20c4.41828,0 8,3.58172 8,8z"/><path d="M-24,291v20c0,4.41828 -3.58172,8 -8,8h-20c-4.41828,0 -8,-3.58172 -8,-8v-20c0,-4.41828 3.58172,-8 8,-8h20c4.41828,0 8,3.58172 8,8z"/><path d="M56,371v20c0,4.41828 -3.58172,8 -8,8h-20c-4.41828,0 -8,-3.58172 -8,-8v-20c0,-4.41828 3.58172,-8 8,-8h20c4.41828,0 8,3.58172 8,8z"/><path d="M56,291v20c0,4.41828 -3.58172,8 -8,8h-20c-4.41828,0 -8,-3.58172 -8,-8v-20c0,-4.41828 3.58172,-8 8,-8h20c4.41828,0 8,3.58172 8,8z"/><path d="M-424,211v20c0,4.41828 -3.58172,8 -8,8h-20c-4.41828,0 -8,-3.58172 -8,-8v-20c0,-4.41828 3.58172,-8 8,-8h20c4.41828,0 8,3.58172 8,8z"/><path d="M-344,211v20c0,4.41828 -3.58172,8 -8,8h-20c-4.41828,0 -8,-3.58172 -8,-8v-20c0,-4.41828 3.58172,-8 8,-8h20c4.41828,0 8,3.58172 8,8z"/><path d="M-424,131v20c0,4.41828 -3.58172,8 -8,8h-20c-4.41828,0 -8,-3.58172 -8,-8v-20c0,-4.41828 3.58172,-8 8,-8h20c4.41828,0 8,3.58172 8,8z"/><path d="M-344,131v20c0,4.41828 -3.58172,8 -8,8h-20c-4.41828,0 -8,-3.58172 -8,-8v-20c0,-4.41828 3.58172,-8 8,-8h20c4.41828,0 8,3.58172 8,8z"/><path d="M-264,211v20c0,4.41828 -3.58172,8 -8,8h-20c-4.41828,0 -8,-3.58172 -8,-8v-20c0,-4.41828 3.58172,-8 8,-8h20c4.41828,0 8,3.58172 8,8z"/><path d="M-184,211v20c0,4.41828 -3.58172,8 -8,8h-20c-4.41828,0 -8,-3.58172 -8,-8v-20c0,-4.41828 3.58172,-8 8,-8h20c4.41828,0 8,3.58172 8,8z"/><path d="M-264,131v20c0,4.41828 -3.58172,8 -8,8h-20c-4.41828,0 -8,-3.58172 -8,-8v-20c0,-4.41828 3.58172,-8 8,-8h20c4.41828,0 8,3.58172 8,8z"/><path d="M-184,131v20c0,4.41828 -3.58172,8 -8,8h-20c-4.41828,0 -8,-3.58172 -8,-8v-20c0,-4.41828 3.58172,-8 8,-8h20c4.41828,0 8,3.58172 8,8z"/><path d="M-104,211v20c0,4.41828 -3.58172,8 -8,8h-20c-4.41828,0 -8,-3.58172 -8,-8v-20c0,-4.41828 3.58172,-8 8,-8h20c4.41828,0 8,3.58172 8,8z"/><path d="M-24,211v20c0,4.41828 -3.58172,8 -8,8h-20c-4.41828,0 -8,-3.58172 -8,-8v-20c0,-4.41828 3.58172,-8 8,-8h20c4.41828,0 8,3.58172 8,8z"/><path d="M-104,131v20c0,4.41828 -3.58172,8 -8,8h-20c-4.41828,0 -8,-3.58172 -8,-8v-20c0,-4.41828 3.58172,-8 8,-8h20c4.41828,0 8,3.58172 8,8z"/><path d="M-24,131v20c0,4.41828 -3.58172,8 -8,8h-20c-4.41828,0 -8,-3.58172 -8,-8v-20c0,-4.41828 3.58172,-8 8,-8h20c4.41828,0 8,3.58172 8,8z"/><path d="M56,211v20c0,4.41828 -3.58172,8 -8,8h-20c-4.41828,0 -8,-3.58172 -8,-8v-20c0,-4.41828 3.58172,-8 8,-8h20c4.41828,0 8,3.58172 8,8z"/><path d="M56,131v20c0,4.41828 -3.58172,8 -8,8h-20c-4.41828,0 -8,-3.58172 -8,-8v-20c0,-4.41828 3.58172,-8 8,-8h20c4.41828,0 8,3.58172 8,8z"/><path d="M-424,51v20c0,4.41828 -3.58172,8 -8,8h-20c-4.41828,0 -8,-3.58172 -8,-8v-20c0,-4.41828 3.58172,-8 8,-8h20c4.41828,0 8,3.58172 8,8z"/><path d="M-344,51v20c0,4.41828 -3.58172,8 -8,8h-20c-4.41828,0 -8,-3.58172 -8,-8v-20c0,-4.41828 3.58172,-8 8,-8h20c4.41828,0 8,3.58172 8,8z"/><path d="M-424,-29v20c0,4.41828 -3.58172,8 -8,8h-20c-4.41828,0 -8,-3.58172 -8,-8v-20c0,-4.41828 3.58172,-8 8,-8h20c4.41828,0 8,3.58172 8,8z"/><path d="M-344,-29v20c0,4.41828 -3.58172,8 -8,8h-20c-4.41828,0 -8,-3.58172 -8,-8v-20c0,-4.41828 3.58172,-8 8,-8h20c4.41828,0 8,3.58172 8,8z"/><path d="M-264,51v20c0,4.41828 -3.58172,8 -8,8h-20c-4.41828,0 -8,-3.58172 -8,-8v-20c0,-4.41828 3.58172,-8 8,-8h20c4.41828,0 8,3.58172 8,8z"/><path d="M-184,51v20c0,4.41828 -3.58172,8 -8,8h-20c-4.41828,0 -8,-3.58172 -8,-8v-20c0,-4.41828 3.58172,-8 8,-8h20c4.41828,0 8,3.58172 8,8z"/><path d="M-264,-29v20c0,4.41828 -3.58172,8 -8,8h-20c-4.41828,0 -8,-3.58172 -8,-8v-20c0,-4.41828 3.58172,-8 8,-8h20c4.41828,0 8,3.58172 8,8z"/><path d="M-184,-29v20c0,4.41828 -3.58172,8 -8,8h-20c-4.41828,0 -8,-3.58172 -8,-8v-20c0,-4.41828 3.58172,-8 8,-8h20c4.41828,0 8,3.58172 8,8z"/><path d="M-104,51v20c0,4.41828 -3.58172,8 -8,8h-20c-4.41828,0 -8,-3.58172 -8,-8v-20c0,-4.41828 3.58172,-8 8,-8h20c4.41828,0 8,3.58172 8,8z"/><path d="M-24,51v20c0,4.41828 -3.58172,8 -8,8h-20c-4.41828,0 -8,-3.58172 -8,-8v-20c0,-4.41828 3.58172,-8 8,-8h20c4.41828,0 8,3.58172 8,8z"/><path d="M-104,-29v20c0,4.41828 -3.58172,8 -8,8h-20c-4.41828,0 -8,-3.58172 -8,-8v-20c0,-4.41828 3.58172,-8 8,-8h20c4.41828,0 8,3.58172 8,8z"/><path d="M-24,-29v20c0,4.41828 -3.58172,8 -8,8h-20c-4.41828,0 -8,-3.58172 -8,-8v-20c0,-4.41828 3.58172,-8 8,-8h20c4.41828,0 8,3.58172 8,8z"/><path d="M56,51v20c0,4.41828 -3.58172,8 -8,8h-20c-4.41828,0 -8,-3.58172 -8,-8v-20c0,-4.41828 3.58172,-8 8,-8h20c4.41828,0 8,3.58172 8,8z"/><path d="M56,-29v20c0,4.41828 -3.58172,8 -8,8h-20c-4.41828,0 -8,-3.58172 -8,-8v-20c0,-4.41828 3.58172,-8 8,-8h20c4.41828,0 8,3.58172 8,8z"/><path d="M-384,331v20c0,4.41828 -3.58172,8 -8,8h-20c-4.41828,0 -8,-3.58172 -8,-8v-20c0,-4.41828 3.58172,-8 8,-8h20c4.41828,0 8,3.58172 8,8z"/><path d="M-304,331v20c0,4.41828 -3.58172,8 -8,8h-20c-4.41828,0 -8,-3.58172 -8,-8v-20c0,-4.41828 3.58172,-8 8,-8h20c4.41828,0 8,3.58172 8,8z"/><path d="M-384,251v20c0,4.41828 -3.58172,8 -8,8h-20c-4.41828,0 -8,-3.58172 -8,-8v-20c0,-4.41828 3.58172,-8 8,-8h20c4.41828,0 8,3.58172 8,8z"/><path d="M-304,251v20c0,4.41828 -3.58172,8 -8,8h-20c-4.41828,0 -8,-3.58172 -8,-8v-20c0,-4.41828 3.58172,-8 8,-8h20c4.41828,0 8,3.58172 8,8z"/><path d="M-224,331v20c0,4.41828 -3.58172,8 -8,8h-20c-4.41828,0 -8,-3.58172 -8,-8v-20c0,-4.41828 3.58172,-8 8,-8h20c4.41828,0 8,3.58172 8,8z"/><path d="M-144,331v20c0,4.41828 -3.58172,8 -8,8h-20c-4.41828,0 -8,-3.58172 -8,-8v-20c0,-4.41828 3.58172,-8 8,-8h20c4.41828,0 8,3.58172 8,8z"/><path d="M-224,251v20c0,4.41828 -3.58172,8 -8,8h-20c-4.41828,0 -8,-3.58172 -8,-8v-20c0,-4.41828 3.58172,-8 8,-8h20c4.41828,0 8,3.58172 8,8z"/><path d="M-144,251v20c0,4.41828 -3.58172,8 -8,8h-20c-4.41828,0 -8,-3.58172 -8,-8v-20c0,-4.41828 3.58172,-8 8,-8h20c4.41828,0 8,3.58172 8,8z"/><path d="M-64,331v20c0,4.41828 -3.58172,8 -8,8h-20c-4.41828,0 -8,-3.58172 -8,-8v-20c0,-4.41828 3.58172,-8 8,-8h20c4.41828,0 8,3.58172 8,8z"/><path d="M16,331v20c0,4.41828 -3.58172,8 -8,8h-20c-4.41828,0 -8,-3.58172 -8,-8v-20c0,-4.41828 3.58172,-8 8,-8h20c4.41828,0 8,3.58172 8,8z"/><path d="M-64,251v20c0,4.41828 -3.58172,8 -8,8h-20c-4.41828,0 -8,-3.58172 -8,-8v-20c0,-4.41828 3.58172,-8 8,-8h20c4.41828,0 8,3.58172 8,8z"/><path d="M16,251v20c0,4.41828 -3.58172,8 -8,8h-20c-4.41828,0 -8,-3.58172 -8,-8v-20c0,-4.41828 3.58172,-8 8,-8h20c4.41828,0 8,3.58172 8,8z"/><path d="M96,331v20c0,4.41828 -3.58172,8 -8,8h-20c-4.41828,0 -8,-3.58172 -8,-8v-20c0,-4.41828 3.58172,-8 8,-8h20c4.41828,0 8,3.58172 8,8z"/><path d="M96,251v20c0,4.41828 -3.58172,8 -8,8h-20c-4.41828,0 -8,-3.58172 -8,-8v-20c0,-4.41828 3.58172,-8 8,-8h20c4.41828,0 8,3.58172 8,8z"/><path d="M-384,171v20c0,4.41828 -3.58172,8 -8,8h-20c-4.41828,0 -8,-3.58172 -8,-8v-20c0,-4.41828 3.58172,-8 8,-8h20c4.41828,0 8,3.58172 8,8z"/><path d="M-304,171v20c0,4.41828 -3.58172,8 -8,8h-20c-4.41828,0 -8,-3.58172 -8,-8v-20c0,-4.41828 3.58172,-8 8,-8h20c4.41828,0 8,3.58172 8,8z"/><path d="M-384,91v20c0,4.41828 -3.58172,8 -8,8h-20c-4.41828,0 -8,-3.58172 -8,-8v-20c0,-4.41828 3.58172,-8 8,-8h20c4.41828,0 8,3.58172 8,8z"/><path d="M-304,91v20c0,4.41828 -3.58172,8 -8,8h-20c-4.41828,0 -8,-3.58172 -8,-8v-20c0,-4.41828 3.58172,-8 8,-8h20c4.41828,0 8,3.58172 8,8z"/><path d="M-224,171v20c0,4.41828 -3.58172,8 -8,8h-20c-4.41828,0 -8,-3.58172 -8,-8v-20c0,-4.41828 3.58172,-8 8,-8h20c4.41828,0 8,3.58172 8,8z"/><path d="M-144,171v20c0,4.41828 -3.58172,8 -8,8h-20c-4.41828,0 -8,-3.58172 -8,-8v-20c0,-4.41828 3.58172,-8 8,-8h20c4.41828,0 8,3.58172 8,8z"/><path d="M-224,91v20c0,4.41828 -3.58172,8 -8,8h-20c-4.41828,0 -8,-3.58172 -8,-8v-20c0,-4.41828 3.58172,-8 8,-8h20c4.41828,0 8,3.58172 8,8z"/><path d="M-144,91v20c0,4.41828 -3.58172,8 -8,8h-20c-4.41828,0 -8,-3.58172 -8,-8v-20c0,-4.41828 3.58172,-8 8,-8h20c4.41828,0 8,3.58172 8,8z"/><path d="M-64,171v20c0,4.41828 -3.58172,8 -8,8h-20c-4.41828,0 -8,-3.58172 -8,-8v-20c0,-4.41828 3.58172,-8 8,-8h20c4.41828,0 8,3.58172 8,8z"/><path d="M16,171v20c0,4.41828 -3.58172,8 -8,8h-20c-4.41828,0 -8,-3.58172 -8,-8v-20c0,-4.41828 3.58172,-8 8,-8h20c4.41828,0 8,3.58172 8,8z"/><path d="M-64,91v20c0,4.41828 -3.58172,8 -8,8h-20c-4.41828,0 -8,-3.58172 -8,-8v-20c0,-4.41828 3.58172,-8 8,-8h20c4.41828,0 8,3.58172 8,8z"/><path d="M16,91v20c0,4.41828 -3.58172,8 -8,8h-20c-4.41828,0 -8,-3.58172 -8,-8v-20c0,-4.41828 3.58172,-8 8,-8h20c4.41828,0 8,3.58172 8,8z"/><path d="M96,171v20c0,4.41828 -3.58172,8 -8,8h-20c-4.41828,0 -8,-3.58172 -8,-8v-20c0,-4.41828 3.58172,-8 8,-8h20c4.41828,0 8,3.58172 8,8z"/><path d="M96,91v20c0,4.41828 -3.58172,8 -8,8h-20c-4.41828,0 -8,-3.58172 -8,-8v-20c0,-4.41828 3.58172,-8 8,-8h20c4.41828,0 8,3.58172 8,8z"/><path d="M-384,11v20c0,4.41828 -3.58172,8 -8,8h-20c-4.41828,0 -8,-3.58172 -8,-8v-20c0,-4.41828 3.58172,-8 8,-8h20c4.41828,0 8,3.58172 8,8z"/><path d="M-304,11v20c0,4.41828 -3.58172,8 -8,8h-20c-4.41828,0 -8,-3.58172 -8,-8v-20c0,-4.41828 3.58172,-8 8,-8h20c4.41828,0 8,3.58172 8,8z"/><path d="M-224,11v20c0,4.41828 -3.58172,8 -8,8h-20c-4.41828,0 -8,-3.58172 -8,-8v-20c0,-4.41828 3.58172,-8 8,-8h20c4.41828,0 8,3.58172 8,8z"/><path d="M-144,11v20c0,4.41828 -3.58172,8 -8,8h-20c-4.41828,0 -8,-3.58172 -8,-8v-20c0,-4.41828 3.58172,-8 8,-8h20c4.41828,0 8,3.58172 8,8z"/><path d="M-64,11v20c0,4.41828 -3.58172,8 -8,8h-20c-4.41828,0 -8,-3.58172 -8,-8v-20c0,-4.41828 3.58172,-8 8,-8h20c4.41828,0 8,3.58172 8,8z"/><path d="M16,11v20c0,4.41828 -3.58172,8 -8,8h-20c-4.41828,0 -8,-3.58172 -8,-8v-20c0,-4.41828 3.58172,-8 8,-8h20c4.41828,0 8,3.58172 8,8z"/><path d="M96,11v20c0,4.41828 -3.58172,8 -8,8h-20c-4.41828,0 -8,-3.58172 -8,-8v-20c0,-4.41828 3.58172,-8 8,-8h20c4.41828,0 8,3.58172 8,8z"/></g></g></g></svg>