<svg version="1.1" xmlns="http://www.w3.org/2000/svg" xmlns:xlink="http://www.w3.org/1999/xlink" width="245.37" height="49.54" viewBox="0,0,245.37,49.54"><g transform="translate(-118.13,-164.38)"><g data-paper-data="{&quot;isPaintingLayer&quot;:true}" fill="#a1c3c4" fill-rule="nonzero" stroke="none" stroke-width="1" stroke-linecap="butt" stroke-linejoin="miter" stroke-miterlimit="10" stroke-dasharray="" stroke-dashoffset="0" style="mix-blend-mode: normal"><path d="M170.13,164.38l5.87,49.54h-22.44l0.18,-4.78h-11.24l-1.93,4.78h-22.44l27.29,-49.54zM154.89999,181.39c0.03273,-1.4353 0.19674,-2.8646 0.49,-4.27h-0.72c-0.33635,1.47336 -0.79804,2.91528 -1.38,4.31l-5.13,12.07h6.65l0.09,-12.12zM227.53,182.38c-0.47,13.03 -7.94,20.54 -23.47,20.54h-3.86l-1.06,11h-20.13l7.06,-49.54h22.33c12.98,0 19.49,7.01 19.13,18zM204.92,177.83h-2.62l-1,10.49h2.53c3.07,0 4.72,-1.97 5,-5.54c0.26,-3.22 -1.2,-4.95 -3.91,-4.95zM274.87,182.38c1.1,13.03 -5.53,20.54 -21.05,20.54h-3.87l0.24,11h-20.13l1.23,-49.54h22.32c12.99,0 20.33,7.01 21.26,18zM256.21,182.83c-0.12,-3.27 -1.79,-5 -4.47,-5h-2.62l0.22,10.49h2.54c3.05,0 4.47,-1.97 4.33,-5.49zM358.18,195.09h-16l-7.51,-30.71h-17.83l9.8,49.54h36.86zM312.44,164.5h-34.75l1.09,11.42h35.79zM279.39,181.85l3,31.65h39.18l-5.9,-31.63zM288.33,181.01h17.3l-0.69,-4.25h-17.11z"/></g></g></svg>