<svg version="1.1" xmlns="http://www.w3.org/2000/svg" xmlns:xlink="http://www.w3.org/1999/xlink" width="960" height="540" viewBox="0,0,960,540"><defs><clipPath id="clip-1"><rect x="-320" y="-180" transform="scale(0.5,0.5)" width="1920" height="1080" fill="none" fill-rule="nonzero" stroke="none" stroke-width="0.5" stroke-linecap="butt"/></clipPath></defs><g transform="translate(160,90)"><g clip-path="url(#clip-1)" stroke-miterlimit="10"><text transform="translate(247.67313,233.52856) scale(0.38488,0.38488)" font-size="40" xml:space="preserve" fill="#000000" fill-rule="nonzero" stroke="#000000" stroke-width="2" stroke-linecap="butt" font-family="&quot;Microsoft YaHei&quot;, &quot;微软雅黑&quot;, STXihei, &quot;华文细黑&quot;" font-weight="normal" text-anchor="start"><tspan x="0" dy="0">by DetectiveSheepy</tspan></text><path d="M-164.43094,-76.31566h960v720h-960z" fill-opacity="0" fill="#000000" fill-rule="evenodd" stroke="none" stroke-width="1" stroke-linecap="square"/><path d="" fill="#000000" fill-rule="nonzero" stroke="none" stroke-width="1" stroke-linecap="butt"/><path d="M266.32,174.58412c-0.73212,-0.02185 -1.45685,-0.15331 -2.15,-0.39l-3,0.41v-13.86l3.16,-0.39v5.38c0.67424,-0.77953 1.64027,-1.24626 2.67,-1.29c2.35,0 4.05,1.93 4.05,5c0.0849,1.31661 -0.37247,2.61064 -1.26586,3.58147c-0.89339,0.97083 -2.14504,1.53395 -3.46415,1.55853zM266,166.96412c-0.59697,-0.0017 -1.1697,0.23604 -1.59,0.66v4.19c0.43299,0.27316 0.93841,0.4091 1.45,0.39c1.35,0 2.13,-1.06 2.13,-2.64c0,-1.58 -0.75,-2.6 -1.99,-2.6z" fill="#000000" fill-rule="nonzero" stroke="none" stroke-width="1" stroke-linecap="butt"/><path d="M278.63,173.82412l-0.48,1.25c-1,2.78 -2.17,3.62 -4.17,3.62c-0.97706,0.01063 -1.94408,-0.19781 -2.83,-0.61l0.94,-2.4c0.45602,0.24968 0.96119,0.39646 1.48,0.43c0.67,0 1,-0.24 1.35,-1.16l0.27,-0.74l-3.73,-9.46h3.38l2,6.27l1.85,-6.27h3.36z" fill="#000000" fill-rule="nonzero" stroke="none" stroke-width="1" stroke-linecap="butt"/><path d="M294.33,174.58412c-4.1,0 -6.88,-2.44 -6.88,-6.66c0,-4.22 2.7,-6.75 6.9,-6.75c1.66953,-0.0358 3.32198,0.3421 4.81,1.1l-1,2.72c-1.11646,-0.66921 -2.38859,-1.03465 -3.69,-1.06c-1.04018,-0.05317 -2.05241,0.34676 -2.77534,1.09654c-0.72293,0.74978 -1.08571,1.77591 -0.99466,2.81346c0,2.56 1.29,4.08 3.73,4.08c0.69168,0.01057 1.37951,-0.10464 2.03,-0.34v-1.94h-3.16v-2.58h6.11v6.33c-1.57175,0.80283 -3.31521,1.21123 -5.08,1.19z" fill="#000000" fill-rule="nonzero" stroke="none" stroke-width="1" stroke-linecap="butt"/><path d="M304.71,174.27412h-3.16v-9.36l3.16,-0.39v1.4c0.41142,-0.89595 1.30412,-1.4729 2.29,-1.48c0.55042,0.00057 1.09253,0.13439 1.58,0.39l-0.64,2.75c-0.3649,-0.18851 -0.76928,-0.28789 -1.18,-0.29c-0.87662,0.04569 -1.65159,0.5843 -2,1.39z" fill="#000000" fill-rule="nonzero" stroke="none" stroke-width="1" stroke-linecap="butt"/><path d="M311.34,163.40412c-1.15,0 -1.86,-0.6 -1.86,-1.68c-0.02594,-0.4873 0.16782,-0.96059 0.52803,-1.28981c0.36021,-0.32922 0.84896,-0.47974 1.33198,-0.41019c1.17,0 1.86,0.59 1.86,1.7c0,1.11 -0.69,1.68 -1.86,1.68zM309.76,174.27412v-9.36l3.16,-0.39v9.75z" fill="#000000" fill-rule="nonzero" stroke="none" stroke-width="1" stroke-linecap="butt"/><path d="M318.85,174.27412h-3.15v-6.9l-1.64,-0.12l0.08,-2l1.54,-0.45v-0.61c0.08,-2.77 1.33,-4 3.73,-4c0.8816,-0.0035 1.75627,0.15583 2.58,0.47c0,0 -0.6,2.63 -0.6,2.6c-0.50235,-0.21982 -1.04195,-0.342 -1.59,-0.36c-0.82,0 -1.11,0.47 -1.11,1.39v0.55h4.05v-0.9c0.08,-2.76 1.35,-4 3.72,-4c0.88816,-0.00413 1.7695,0.15518 2.6,0.47c0,0 -0.61,2.62 -0.61,2.6c-0.49702,-0.22661 -1.03404,-0.35236 -1.58,-0.37c-0.82,0 -1.1,0.47 -1.1,1.39v0.76h2.64l-0.06,2.48h-2.41v6.92h-3.15v-6.84h-3.94z" fill="#000000" fill-rule="nonzero" stroke="none" stroke-width="1" stroke-linecap="butt"/><path d="M335.66,164.44412c2.36,0 4.08,1.93 4.08,5c0.08497,1.31831 -0.37374,2.61389 -1.26931,3.58503c-0.89557,0.97115 -2.14983,1.53308 -3.47069,1.55497c-0.67796,-0.00839 -1.35131,-0.11275 -2,-0.31v4.26h-3.15v-13.62l3.15,-0.39v1.21c0.66814,-0.78191 1.6323,-1.24949 2.66,-1.29zM333,171.81412c0.43348,0.27201 0.93855,0.40786 1.45,0.39c1.36,0 2.13,-1.06 2.13,-2.64c0,-1.58 -0.69,-2.6 -2,-2.6c-0.5876,-0.0086 -1.15506,0.21408 -1.58,0.62z" fill="#000000" fill-rule="nonzero" stroke="none" stroke-width="1" stroke-linecap="butt"/><path d="M346.65999,173.12412c-0.62802,0.90117 -1.65169,1.44465 -2.75,1.46c-0.73723,0.04078 -1.46006,-0.21554 -2.00691,-0.71165c-0.54685,-0.49611 -0.87212,-1.19065 -0.90309,-1.92835c0,-1.81 1.36,-3.26 5.64,-3.38v-0.19c0,-1 -0.52,-1.45 -1.68,-1.45c-1.14038,0.09106 -2.24666,0.4325 -3.24,1l-0.65,-2.34c1.34901,-0.72053 2.85078,-1.10797 4.38,-1.13c3.29,0 4.38,1.5 4.34,4.16v2.82c0,0.66 0.12,0.72 0.78,0.78l-0.31,2.26c-2.07,0.26 -3.09,-0.29 -3.52,-1.34zM346.65999,170.03412c-2,0.23 -2.67,0.6 -2.67,1.44c0.01732,0.29352 0.15466,0.56697 0.37976,0.75613c0.2251,0.18916 0.51812,0.27736 0.81024,0.24387c0.56128,0.0038 1.09833,-0.22844 1.48,-0.64z" fill="#000000" fill-rule="nonzero" stroke="none" stroke-width="1" stroke-linecap="butt"/><path d="M355.81,174.58412c-2.36,0 -3.63,-1 -3.5,-3.46l0.14,-3.63l-1.45,-0.24l0.06,-2l1.43,-0.47v-2.17h3v2.27h2.51l-0.06,2.48h-2.54l-0.11,3.42c0,0.88 0.48,1.25 1.25,1.25c0.42753,-0.0144 0.84981,-0.09885 1.25,-0.25l0.37,2.46c-0.75826,0.24633 -1.55302,0.36132 -2.35,0.34z" fill="#000000" fill-rule="nonzero" stroke="none" stroke-width="1" stroke-linecap="butt"/><path d="M364.26,174.58412c-3.15,0 -5.16,-1.76 -5.16,-5c0,-3.24 2.05,-5.14 5.24,-5.14c1.20502,-0.02428 2.39725,0.25058 3.47,0.8l-0.62,2.34c-0.7658,-0.45145 -1.6317,-0.70572 -2.52,-0.74c-0.67436,-0.02047 -1.32371,0.25618 -1.7761,0.7567c-0.4524,0.50052 -0.66221,1.17444 -0.5739,1.8433c-0.08954,0.68669 0.12967,1.37778 0.59866,1.8873c0.469,0.50952 1.13959,0.78515 1.83134,0.75269c0.89143,0.0049 1.76572,-0.24489 2.52,-0.72l0.47,2.4c-1.07043,0.5674 -2.26886,0.84978 -3.48,0.82z" fill="#000000" fill-rule="nonzero" stroke="none" stroke-width="1" stroke-linecap="butt"/><path d="M375.72999,174.27412v-5.63c0,-1.15 -0.51,-1.52 -1.31,-1.52c-0.65534,0.01494 -1.28209,0.27133 -1.76,0.72v6.43h-3.16v-13.53l3.16,-0.39v5.71c0.78462,-0.97974 1.95577,-1.57078 3.21,-1.62c1.88,0 3,1.25 3,3.28v6.55z" fill="#000000" fill-rule="nonzero" stroke="none" stroke-width="1" stroke-linecap="butt"/></g></g></svg>