<svg version="1.1" xmlns="http://www.w3.org/2000/svg" xmlns:xlink="http://www.w3.org/1999/xlink" width="17" height="19" viewBox="0,0,17,19"><g transform="translate(-231.5,-170.5)"><g data-paper-data="{&quot;isPaintingLayer&quot;:true}" fill-rule="nonzero" stroke="none" stroke-width="1" stroke-linecap="butt" stroke-linejoin="miter" stroke-miterlimit="10" stroke-dasharray="" stroke-dashoffset="0" style="mix-blend-mode: normal"><path d="M234,170.5h3c1.4,0 2.5,1.1 2.5,2.5v12c0,1.4 -1.1,2.5 -2.5,2.5h-3c-1.4,0 -2.5,-1.1 -2.5,-2.5v-12c0,-1.4 1.1,-2.5 2.5,-2.5z" fill="#000000"/><path d="M234,172.5h12c1.4,0 2.5,1.1 2.5,2.5v12c0,1.4 -1.1,2.5 -2.5,2.5h-12c-1.4,0 -2.5,-1.1 -2.5,-2.5v-12c0,-1.4 1.1,-2.5 2.5,-2.5z" fill-opacity="0.2" fill="#000000"/><path d="M243,170.5h3c1.4,0 2.5,1.1 2.5,2.5v12c0,1.4 -1.1,2.5 -2.5,2.5h-3c-1.4,0 -2.5,-1.1 -2.5,-2.5v-12c0,-1.4 1.1,-2.5 2.5,-2.5z" fill="#000000"/><path d="M237,186.5h-3c-0.8,0 -1.5,-0.7 -1.5,-1.5v-12c0,-0.8 0.7,-1.5 1.5,-1.5h3c0.8,0 1.5,0.7 1.5,1.5v12c0,0.8 -0.7,1.5 -1.5,1.5zM247.5,185v-12c0,-0.8 -0.7,-1.5 -1.5,-1.5h-3c-0.8,0 -1.5,0.7 -1.5,1.5v12c0,0.8 0.7,1.5 1.5,1.5h3c0.8,0 1.5,-0.7 1.5,-1.5z" fill="#ffff00"/><path d="M237,186.5h-3c-0.8,0 -1.5,-0.7 -1.5,-1.5v-12c0,-0.8 0.7,-1.5 1.5,-1.5h3c0.8,0 1.5,0.7 1.5,1.5v12c0,0.8 -0.7,1.5 -1.5,1.5z" fill="#ffff00"/><path d="M246,186.5h-3c-0.8,0 -1.5,-0.7 -1.5,-1.5v-12c0,-0.8 0.7,-1.5 1.5,-1.5h3c0.8,0 1.5,0.7 1.5,1.5v12c0,0.8 -0.7,1.5 -1.5,1.5z" fill="#ffff00"/></g></g></svg>