<svg version="1.1" xmlns="http://www.w3.org/2000/svg" xmlns:xlink="http://www.w3.org/1999/xlink" width="153" height="41" viewBox="0,0,153,41"><g transform="translate(-243.5,-159.5)"><g stroke="none" stroke-miterlimit="10"><path d="M390.15,200.5h-140.3c-3.50245,-0.01098 -6.33902,-2.84755 -6.35,-6.35v-26.3c0.01098,-3.50245 2.84755,-6.33902 6.35,-6.35h140.3c3.50245,0.01098 6.33902,2.84755 6.35,6.35v26.3c-0.01098,3.50245 -2.84755,6.33902 -6.35,6.35z" fill="#000000" opacity="0.1"/><path d="M390.15,198.5h-140.3c-3.50245,-0.01098 -6.33902,-2.84755 -6.35,-6.35v-26.3c0.01098,-3.50245 2.84755,-6.33902 6.35,-6.35h140.3c3.50245,0.01098 6.33902,2.84755 6.35,6.35v26.3c-0.01098,3.50245 -2.84755,6.33902 -6.35,6.35z" fill="#ffffff" opacity="0.95"/><path d="M259.4,185.5v-11.28h2.86v8.86h4.72v2.42z" fill="#000000"/><path d="M269.33,185.5v-11.28h8.23v2.28h-5.42v2.17h4.36v2.28h-4.36v2.2h5.42v2.35z" fill="#000000"/><path d="M286.38,185.5h-3.58l-3.8,-11.28h3l2.66,8.48l2.65,-8.48h3z" fill="#000000"/><path d="M292.06,185.5v-11.28h8.23v2.28h-5.42v2.17h4.36v2.28h-4.36v2.2h5.42v2.35z" fill="#000000"/><path d="M302.81,185.5v-11.28h2.86v8.86h4.72v2.42z" fill="#000000"/><path d="M317.43,185.5v-11.28h8.22v2.28h-5.42v2.17h4.36v2.28h-4.36v2.2h5.42v2.35z" fill="#000000"/><path d="M332.21,185.5h-4v-11.28h4.19c4,0 6.22,2.2 6.22,5.55c0,3.35 -2.29,5.73 -6.41,5.73zM332.21,176.5h-1.17v6.68h1.33c0.91477,0.11675 1.8324,-0.19371 2.48838,-0.84188c0.65598,-0.64817 0.9774,-1.56202 0.87162,-2.47812c0,-2.31 -1.17,-3.36 -3.51,-3.36z" fill="#000000"/><path d="M341.02,185.5v-11.28h2.87v11.28z" fill="#000000"/><path d="M352.5,176.62v8.88h-2.86v-8.88h-3.59v-2.4h10v2.4z" fill="#000000"/><path d="M363.5,185.74c-1.58825,0.11098 -3.14666,-0.47174 -4.27247,-1.59754c-1.1258,-1.1258 -1.70851,-2.68421 -1.59753,-4.27246c-0.06477,-1.58029 0.53114,-3.11623 1.64477,-4.23934c1.11362,-1.12311 2.64445,-1.73202 4.22523,-1.68066c3.35,0 5.89,2.05 5.89,5.85c0.06173,1.58476 -0.53726,3.124 -1.65395,4.25017c-1.11669,1.12617 -2.65082,1.73816 -4.23604,1.68983zM363.5,176.25c-1.91,0 -3,1.45 -3,3.55c0,2.1 1.12,3.64 3,3.64c1.88,0 3,-1.46 3,-3.57c0,-2.11 -1.12,-3.62 -3,-3.62z" fill="#000000"/><path d="M374.7,185.5h-2.86v-11.28h4.52c3,0 4.55,1.39 4.55,3.57c0.04228,1.47225 -0.8962,2.79429 -2.3,3.24l2.89,4.47h-3.22l-2.25,-3.78l-1.32,0.11zM376.09,179.67c1.22,-0.09 1.89,-0.59 1.89,-1.67c0,-1.08 -0.68,-1.5 -2.12,-1.5h-1.21v3.19z" fill="#000000"/></g></g></svg>