<svg version="1.1" xmlns="http://www.w3.org/2000/svg" xmlns:xlink="http://www.w3.org/1999/xlink" width="153" height="41" viewBox="0,0,153,41"><g transform="translate(-163.5,-159.5)"><g data-paper-data="{&quot;isPaintingLayer&quot;:true}" fill-rule="nonzero" stroke="none" stroke-width="1" stroke-linecap="butt" stroke-linejoin="miter" stroke-miterlimit="10" stroke-dasharray="" stroke-dashoffset="0" style="mix-blend-mode: normal"><path d="M310.15,200.5h-140.3c-3.50245,-0.01098 -6.33902,-2.84755 -6.35,-6.35v-26.3c0.01098,-3.50245 2.84755,-6.33902 6.35,-6.35h140.3c3.50245,0.01098 6.33902,2.84755 6.35,6.35v26.3c-0.01098,3.50245 -2.84755,6.33902 -6.35,6.35z" fill="#000000" opacity="0.1"/><path d="M310.15,198.5h-140.3c-3.50245,-0.01098 -6.33902,-2.84755 -6.35,-6.35v-26.3c0.01098,-3.50245 2.84755,-6.33902 6.35,-6.35h140.3c3.50245,0.01098 6.33902,2.84755 6.35,6.35v26.3c-0.01098,3.50245 -2.84755,6.33902 -6.35,6.35z" fill="#ffffff" opacity="0.95"/><path d="M212.9489,184.41688h-2.79218l-0.82564,-2.40188h-4.23331l-0.81063,2.40188h-2.83722l3.99312,-11.25879h3.5878zM207.21442,175.40985l-1.50117,4.41344h3.00234z" fill="#000000"/><path d="M231.2932,184.41688v-11.25879h8.22642v2.2968h-5.41923v2.16169h4.36841v2.29679h-4.36841v2.19171h5.41923v2.31181z" fill="#000000"/><path d="M272.60544,173.15809h8.04628v2.35684h-5.19405v2.32682h4.15824v2.34183h-4.15824v4.23331h-2.85223z" fill="#000000"/><path d="M225.7739,175.68006l-2.46193,8.49663h-3.00234l-2.46193,-8.48162l-0.07505,8.66176h-2.67209l0.40532,-11.25878h4.03815l2.34183,8.43659l2.28178,-8.37654h4.00813l0.37529,11.25879h-2.71712z" fill="#000000"/><path d="M196.49105,173.15809h2.65707v11.36387h-3.00235l-4.7437,-7.34073v7.2957h-2.6871v-11.25879h3.09241l4.68366,7.31071z" fill="#000000"/><path d="M264.32899,184.68709c-1.59112,0.11736 -3.15466,-0.46269 -4.28425,-1.58939c-1.12959,-1.1267 -1.71364,-2.68878 -1.60034,-4.28019c-0.08998,-1.6 0.49896,-3.16373 1.62206,-4.30684c1.1231,-1.14311 2.67621,-1.75957 4.27754,-1.69784c1.58833,-0.11685 3.1492,0.46125 4.27821,1.5845c1.12903,1.12327 1.7151,2.68116 1.60638,4.27006c0.08498,1.60002 -0.5051,3.16231 -1.6266,4.30666c-1.12151,1.14434 -2.67159,1.76576 -4.27301,1.71304zM264.32899,175.18468c-1.9215,0 -3.00234,1.50117 -3.00234,3.55778c0,2.0566 1.12588,3.63284 3.00234,3.63284c1.87646,0 3.00234,-1.50117 3.00234,-3.55778c0,-2.0566 -1.09585,-3.63283 -3.00234,-3.63283z" fill="#000000"/><path d="M248.31149,181.26442c0,-0.76559 -0.81063,-1.0208 -2.3118,-1.42611c-1.50117,-0.40532 -3.61782,-1.20094 -3.61782,-3.4527c0,-2.25176 1.50117,-3.48272 4.32337,-3.48272c1.46733,-0.03245 2.91885,0.30846 4.21829,0.99077l-0.55544,2.35684c-1.12651,-0.59901 -2.37308,-0.93758 -3.64784,-0.99077c-0.99078,0 -1.50117,0.34527 -1.50117,0.96075c0,0.61548 1.02079,1.0208 2.37185,1.39609c1.72635,0.48038 3.52775,1.26099 3.52775,3.40766c0,2.14667 -1.59124,3.66286 -4.54855,3.66286c-1.50919,0.01573 -2.99908,-0.33998 -4.33838,-1.03581l0.54042,-2.37185c1.18606,0.64535 2.50822,1.00034 3.85801,1.03581c1.00579,0 1.68131,-0.3753 1.68131,-1.05082z" fill="#000000"/><path d="M283.23875,173.15809h8.04628v2.35684h-5.19405v2.32682h4.15824v2.34183h-4.15824v4.23331h-2.85223z" fill="#000000"/></g></g></svg>