<svg version="1.1" xmlns="http://www.w3.org/2000/svg" xmlns:xlink="http://www.w3.org/1999/xlink" width="38.4674" height="41" viewBox="0,0,38.4674,41"><g transform="translate(-220.7663,-159.5)"><g data-paper-data="{&quot;isPaintingLayer&quot;:true}" fill-rule="nonzero" stroke-linejoin="miter" stroke-miterlimit="10" stroke-dasharray="" stroke-dashoffset="0" style="mix-blend-mode: normal"><path d="M252.8837,200.5h-25.7674c-3.50245,-0.01098 -6.33902,-2.84755 -6.35,-6.35v-26.3c0.01098,-3.50245 2.84755,-6.33902 6.35,-6.35h25.7674c3.50245,0.01098 6.33902,2.84755 6.35,6.35v26.3c-0.01098,3.50245 -2.84755,6.33902 -6.35,6.35z" fill="#000000" stroke="none" stroke-width="1" stroke-linecap="butt" opacity="0.1"/><path d="M252.8837,198.5h-25.7674c-3.50245,-0.01098 -6.33902,-2.84755 -6.35,-6.35v-26.3c0.01098,-3.50245 2.84755,-6.33902 6.35,-6.35h25.7674c3.50245,0.01098 6.33902,2.84755 6.35,6.35v26.3c-0.01098,3.50245 -2.84755,6.33902 -6.35,6.35z" fill="#ffffff" stroke="none" stroke-width="1" stroke-linecap="butt" opacity="0.95"/><path d="M229.88552,177.67443c-0.80069,-4.36775 2.56426,-8.36844 6.96648,-8.36844c2.54385,0 4.82028,1.3495 6.0747,3.43835c1.71104,-0.55289 3.47036,-0.31727 4.9198,0.68055c1.44866,0.99724 2.31384,2.57617 2.38388,4.30311c1.93571,0.91192 3.2011,2.83934 3.2011,4.957c0,0.3627 -0.03557,0.72551 -0.10567,1.07845c-0.50992,2.5672 -2.78231,4.43055 -5.40334,4.43055h-15.79248c-3.06658,0 -5.56147,-2.47134 -5.56147,-5.50901c0,-2.16761 1.31508,-4.12425 3.317,-5.01057zM232.12999,186.62001h15.79248c2.15114,0 3.935,-1.74373 3.935,-3.935c0,-1.63959 -1.07751,-3.12282 -2.68126,-3.69077l-0.55877,-0.1979l0.03594,-0.59172c0.08452,-1.39037 -0.5508,-2.69254 -1.69945,-3.48327c-1.21466,-0.83621 -2.70476,-0.89398 -4.06874,-0.2755l-0.70893,0.32146l-0.32923,-0.70536c-0.90222,-1.93293 -2.8629,-3.18195 -4.99504,-3.18195c-3.03767,0 -5.50901,2.47134 -5.50901,5.50901c0,0.89855 0.18956,1.44257 0.39917,2.16289c-0.58684,0.30462 -0.68181,0.36108 -0.87939,0.42876c-1.62705,0.5573 -2.72024,2.04599 -2.72024,3.70436c0,2.16976 1.7888,3.935 3.98747,3.935z" data-paper-data="{&quot;index&quot;:null}" fill="#000000" stroke="#000000" stroke-width="0.5" stroke-linecap="butt"/><path d="M228.22917,166.97917l23.54167,23.54167" fill="none" stroke="#000000" stroke-width="2.5" stroke-linecap="round"/></g></g></svg>