<svg version="1.1" xmlns="http://www.w3.org/2000/svg" xmlns:xlink="http://www.w3.org/1999/xlink" width="153" height="41" viewBox="0,0,153,41"><g transform="translate(-163.5,-159.5)"><g data-paper-data="{&quot;isPaintingLayer&quot;:true}" fill-rule="nonzero" stroke="none" stroke-width="1" stroke-linecap="butt" stroke-linejoin="miter" stroke-miterlimit="10" stroke-dasharray="" stroke-dashoffset="0" style="mix-blend-mode: normal"><path d="M310.15,200.5h-140.3c-3.50245,-0.01098 -6.33902,-2.84755 -6.35,-6.35v-26.3c0.01098,-3.50245 2.84755,-6.33902 6.35,-6.35h140.3c3.50245,0.01098 6.33902,2.84755 6.35,6.35v26.3c-0.01098,3.50245 -2.84755,6.33902 -6.35,6.35z" fill="#000000" opacity="0.1"/><path d="M310.15,198.5h-140.3c-3.50245,-0.01098 -6.33902,-2.84755 -6.35,-6.35v-26.3c0.01098,-3.50245 2.84755,-6.33902 6.35,-6.35h140.3c3.50245,0.01098 6.33902,2.84755 6.35,6.35v26.3c-0.01098,3.50245 -2.84755,6.33902 -6.35,6.35z" fill="#ffffff" opacity="0.95"/><path d="M206.61052,184.3244h-2.79218l-0.82564,-2.40188h-4.23331l-0.81063,2.40188h-2.83722l3.99312,-11.25879h3.5878zM200.87604,175.31737l-1.50117,4.41344h3.00234z" fill="#000000"/><path d="M224.95482,184.3244v-11.25879h8.22642v2.2968h-5.41923v2.16169h4.36841v2.29679h-4.36841v2.19171h5.41923v2.31181z" fill="#000000"/><path d="M219.43551,175.58758l-2.46193,8.49663h-3.00234l-2.46193,-8.48162l-0.07505,8.66176h-2.67209l0.40532,-11.25878h4.03815l2.34183,8.43659l2.28178,-8.37654h4.00813l0.37529,11.25879h-2.71712z" fill="#000000"/><path d="M190.15267,173.06561h2.65707v11.36387h-3.00235l-4.7437,-7.34073v7.2957h-2.6871v-11.25879h3.09241l4.68366,7.31071z" fill="#000000"/><path d="M241.97311,181.17194c0,-0.76559 -0.81063,-1.0208 -2.3118,-1.42611c-1.50117,-0.40532 -3.61782,-1.20094 -3.61782,-3.4527c0,-2.25176 1.50117,-3.48272 4.32337,-3.48272c1.46733,-0.03245 2.91885,0.30846 4.21829,0.99077l-0.55544,2.35684c-1.12651,-0.59901 -2.37308,-0.93758 -3.64784,-0.99077c-0.99078,0 -1.50117,0.34527 -1.50117,0.96075c0,0.61548 1.02079,1.0208 2.37185,1.39609c1.72635,0.48038 3.52775,1.26099 3.52775,3.40766c0,2.14667 -1.59124,3.66286 -4.54855,3.66286c-1.50919,0.01573 -2.99908,-0.33998 -4.33838,-1.03581l0.54042,-2.37185c1.18606,0.64535 2.50822,1.00034 3.85801,1.03581c1.00579,0 1.68131,-0.3753 1.68131,-1.05082z" fill="#000000"/><path d="M258.05342,184.67752c-1.58913,0.11439 -3.14959,-0.46722 -4.27618,-1.59382c-1.1266,-1.1266 -1.7082,-2.68705 -1.59382,-4.27618c-0.06835,-1.58654 0.53059,-3.12925 1.65158,-4.25404c1.12099,-1.12479 2.66166,-1.72895 4.24842,-1.66596c3.35,0 5.89,2 5.89,5.85c0.06527,1.59099 -0.53678,3.13696 -1.66082,4.2648c-1.12404,1.12785 -2.66798,1.7351 -4.25918,1.6752zM258.05342,175.18752c-1.91,0 -3,1.44 -3,3.55c0,2.11 1.11,3.64 3,3.64c1.89,0 3,-1.46 3,-3.57c0,-2.11 -1.1,-3.62 -3,-3.62z" fill="#000000"/><path d="M274.19342,173.15752h2.68v11.36h-3l-4.73,-7.4v7.29h-2.73v-11.25h3.1l4.68,7.31z" fill="#000000"/><path d="M279.79342,184.40752v-11.25h2.86v8.86h4.72v2.39z" fill="#000000"/><path d="M293.78342,180.14752v4.26h-2.81v-4.28l-3.93,-7h3l2.33,4.45l2.25,-4.45h3z" fill="#000000"/></g></g></svg>