<svg version="1.1" xmlns="http://www.w3.org/2000/svg" xmlns:xlink="http://www.w3.org/1999/xlink" width="278.326" height="112.68794" viewBox="0,0,278.326,112.68794"><g transform="translate(-101.49749,-149.37)"><g data-paper-data="{&quot;isPaintingLayer&quot;:true}" fill-rule="nonzero" stroke-linecap="butt" stroke-linejoin="miter" stroke-miterlimit="10" stroke-dasharray="" stroke-dashoffset="0" style="mix-blend-mode: normal"><path d="M170.13,164.38l5.87,49.54h-22.44l0.18,-4.78h-11.24l-1.93,4.78h-22.44l27.29,-49.54zM154.89999,181.39c0.03273,-1.4353 0.19674,-2.8646 0.49,-4.27h-0.72c-0.33635,1.47336 -0.79804,2.91528 -1.38,4.31l-5.13,12.07h6.65l0.09,-12.12zM227.53,182.38c-0.47,13.03 -7.94,20.54 -23.47,20.54h-3.86l-1.06,11h-20.13l7.06,-49.54h22.33c12.98,0 19.49,7.01 19.13,18zM204.92,177.83h-2.62l-1,10.49h2.53c3.07,0 4.72,-1.97 5,-5.54c0.26,-3.22 -1.2,-4.95 -3.91,-4.95zM274.87,182.38c1.1,13.03 -5.53,20.54 -21.05,20.54h-3.87l0.24,11h-20.13l1.23,-49.54h22.32c12.99,0 20.33,7.01 21.26,18zM256.21,182.83c-0.12,-3.27 -1.79,-5 -4.47,-5h-2.62l0.22,10.49h2.54c3.05,0 4.47,-1.97 4.33,-5.49zM358.18,195.09h-16l-7.51,-30.71h-17.83l9.8,49.54h36.86zM312.44,164.5h-34.75l1.09,11.42h35.79zM279.39,181.85l3,31.65h39.18l-5.9,-31.63zM288.33,181.01h17.3l-0.69,-4.25h-17.11z" fill="#a1c3c4" stroke="none" stroke-width="1"/><g><path d="M142.94,205.94l0.2,-5.36h-12.64l-2.12,5.36h-25.19l30.61,-55.57h27.7l6.6,55.57zM144.44,169.5c0.03315,-1.62688 0.21728,-3.24716 0.55,-4.84h-0.82c-0.37679,1.65364 -0.89194,3.27267 -1.54,4.84l-5.75,13.48h7.46z" fill="#ffff1f" stroke="#000000" stroke-width="2"/><path d="M171.5,205.94l7.9,-55.57h25c14.57,0 21.87,7.86 21.46,20.2c-0.48,14.61 -8.91,23 -26.32,23h-4.29l-1.18,12.37zM199.36,177.22c3.43,0 5.28,-2.21 5.59,-6.22c0.29,-3.6 -1.35,-5.55 -4.36,-5.55h-2.94l-1.15,11.77z" fill="#ffff1f" stroke="#000000" stroke-width="2"/><path d="M228.75,205.94l1.38,-55.57h25c14.57,0 22.8,7.86 23.84,20.2c1.24,14.61 -6.19,23 -23.61,23h-4.33l0.26,12.33zM253.22,177.22c3.43,0 5,-2.21 4.87,-6.22c-0.14,-3.6 -2,-5.55 -5,-5.55h-2.94l0.25,11.77z" fill="#ffff1f" stroke="#000000" stroke-width="2"/><path d="M337.1,205.94l-11,-55.57h20l8.4,34.44h18l6,21.13z" fill="#ffff1f" stroke="#000000" stroke-width="2"/><g><path d="M283.40999,163.26l-1.23,-12.77h38.98l2.39,12.77z" fill="#00ff55" stroke="#000000" stroke-width="2"/><path d="M324.78999,169.94l6.62,35.5h-43.96l-3.4,-35.5z" fill="#ffff1f" stroke="#000000" stroke-width="2"/><path d="M322.76,190.17h-26.13" fill="none" stroke="#000000" stroke-width="2"/><path d="M313.52,168.97h-19.4l-0.57,-4.77h19.2z" fill="#000000" stroke="#000000" stroke-width="2"/><path d="M309.19,170.91h10.21l1.91,10.95h-10.46z" fill="#ffffff" stroke="none" stroke-width="1"/><path d="M319.84,178.82h-3.78l-0.65,-3.99h3.74z" fill="#000000" stroke="none" stroke-width="1"/><path d="M288.78,170.91h10.21l1.41,10.95h-10.46z" fill="#ffffff" stroke="none" stroke-width="1"/><path d="M299.06,178.82h-3.78l-0.47,-3.99h3.75z" fill="#000000" stroke="none" stroke-width="1"/></g></g><path d="M186.32,234.58412c-0.73212,-0.02185 -1.45685,-0.15331 -2.15,-0.39l-3,0.41v-13.86l3.16,-0.39v5.38c0.67424,-0.77953 1.64027,-1.24626 2.67,-1.29c2.35,0 4.05,1.93 4.05,5c0.0849,1.31661 -0.37247,2.61064 -1.26586,3.58147c-0.89339,0.97083 -2.14504,1.53395 -3.46415,1.55853zM186,226.96412c-0.59697,-0.0017 -1.1697,0.23604 -1.59,0.66v4.19c0.43299,0.27316 0.93841,0.4091 1.45,0.39c1.35,0 2.13,-1.06 2.13,-2.64c0,-1.58 -0.75,-2.6 -1.99,-2.6z" fill="#000000" stroke="none" stroke-width="1"/><path d="M198.63,233.82412l-0.48,1.25c-1,2.78 -2.17,3.62 -4.17,3.62c-0.97706,0.01063 -1.94408,-0.19781 -2.83,-0.61l0.94,-2.4c0.45602,0.24968 0.96119,0.39646 1.48,0.43c0.67,0 1,-0.24 1.35,-1.16l0.27,-0.74l-3.73,-9.46h3.38l2,6.27l1.85,-6.27h3.36z" fill="#000000" stroke="none" stroke-width="1"/><path d="M214.33,234.58412c-4.1,0 -6.88,-2.44 -6.88,-6.66c0,-4.22 2.7,-6.75 6.9,-6.75c1.66953,-0.0358 3.32198,0.3421 4.81,1.1l-1,2.72c-1.11646,-0.66921 -2.38859,-1.03465 -3.69,-1.06c-1.04018,-0.05317 -2.05241,0.34676 -2.77534,1.09654c-0.72293,0.74978 -1.08571,1.77591 -0.99466,2.81346c0,2.56 1.29,4.08 3.73,4.08c0.69168,0.01057 1.37951,-0.10464 2.03,-0.34v-1.94h-3.16v-2.58h6.11v6.33c-1.57175,0.80283 -3.31521,1.21123 -5.08,1.19z" fill="#000000" stroke="none" stroke-width="1"/><path d="M224.71,234.27412h-3.16v-9.36l3.16,-0.39v1.4c0.41142,-0.89595 1.30412,-1.4729 2.29,-1.48c0.55042,0.00057 1.09253,0.13439 1.58,0.39l-0.64,2.75c-0.3649,-0.18851 -0.76928,-0.28789 -1.18,-0.29c-0.87662,0.04569 -1.65159,0.5843 -2,1.39z" fill="#000000" stroke="none" stroke-width="1"/><path d="M231.34,223.40412c-1.15,0 -1.86,-0.6 -1.86,-1.68c-0.02594,-0.4873 0.16782,-0.96059 0.52803,-1.28981c0.36021,-0.32922 0.84896,-0.47974 1.33198,-0.41019c1.17,0 1.86,0.59 1.86,1.7c0,1.11 -0.69,1.68 -1.86,1.68zM229.76,234.27412v-9.36l3.16,-0.39v9.75z" fill="#000000" stroke="none" stroke-width="1"/><path d="M238.85,234.27412h-3.15v-6.9l-1.64,-0.12l0.08,-2l1.54,-0.45v-0.61c0.08,-2.77 1.33,-4 3.73,-4c0.8816,-0.0035 1.75627,0.15583 2.58,0.47c0,0 -0.6,2.63 -0.6,2.6c-0.50235,-0.21982 -1.04195,-0.342 -1.59,-0.36c-0.82,0 -1.11,0.47 -1.11,1.39v0.55h4.05v-0.9c0.08,-2.76 1.35,-4 3.72,-4c0.88816,-0.00413 1.7695,0.15518 2.6,0.47c0,0 -0.61,2.62 -0.61,2.6c-0.49702,-0.22661 -1.03404,-0.35236 -1.58,-0.37c-0.82,0 -1.1,0.47 -1.1,1.39v0.76h2.64l-0.06,2.48h-2.41v6.92h-3.15v-6.84h-3.94z" fill="#000000" stroke="none" stroke-width="1"/><path d="M255.66,224.44412c2.36,0 4.08,1.93 4.08,5c0.08497,1.31831 -0.37374,2.61389 -1.26931,3.58503c-0.89557,0.97115 -2.14983,1.53308 -3.47069,1.55497c-0.67796,-0.00839 -1.35131,-0.11275 -2,-0.31v4.26h-3.15v-13.62l3.15,-0.39v1.21c0.66814,-0.78191 1.6323,-1.24949 2.66,-1.29zM253,231.81412c0.43348,0.27201 0.93855,0.40786 1.45,0.39c1.36,0 2.13,-1.06 2.13,-2.64c0,-1.58 -0.69,-2.6 -2,-2.6c-0.5876,-0.0086 -1.15506,0.21408 -1.58,0.62z" fill="#000000" stroke="none" stroke-width="1"/><path d="M266.66,233.12412c-0.62802,0.90117 -1.65169,1.44465 -2.75,1.46c-0.73723,0.04078 -1.46006,-0.21554 -2.00691,-0.71165c-0.54685,-0.49611 -0.87212,-1.19065 -0.90309,-1.92835c0,-1.81 1.36,-3.26 5.64,-3.38v-0.19c0,-1 -0.52,-1.45 -1.68,-1.45c-1.14038,0.09106 -2.24666,0.4325 -3.24,1l-0.65,-2.34c1.34901,-0.72053 2.85078,-1.10797 4.38,-1.13c3.29,0 4.38,1.5 4.34,4.16v2.82c0,0.66 0.12,0.72 0.78,0.78l-0.31,2.26c-2.07,0.26 -3.09,-0.29 -3.52,-1.34zM266.66,230.03412c-2,0.23 -2.67,0.6 -2.67,1.44c0.01732,0.29352 0.15466,0.56697 0.37976,0.75613c0.2251,0.18916 0.51812,0.27736 0.81024,0.24387c0.56128,0.0038 1.09833,-0.22844 1.48,-0.64z" fill="#000000" stroke="none" stroke-width="1"/><path d="M275.81,234.58412c-2.36,0 -3.63,-1 -3.5,-3.46l0.14,-3.63l-1.45,-0.24l0.06,-2l1.43,-0.47v-2.17h3v2.27h2.51l-0.06,2.48h-2.54l-0.11,3.42c0,0.88 0.48,1.25 1.25,1.25c0.42753,-0.0144 0.84981,-0.09885 1.25,-0.25l0.37,2.46c-0.75826,0.24633 -1.55302,0.36132 -2.35,0.34z" fill="#000000" stroke="none" stroke-width="1"/><path d="M284.26,234.58412c-3.15,0 -5.16,-1.76 -5.16,-5c0,-3.24 2.05,-5.14 5.24,-5.14c1.20502,-0.02428 2.39725,0.25058 3.47,0.8l-0.62,2.34c-0.7658,-0.45145 -1.6317,-0.70572 -2.52,-0.74c-0.67436,-0.02047 -1.32371,0.25618 -1.7761,0.7567c-0.4524,0.50052 -0.66221,1.17444 -0.5739,1.8433c-0.08954,0.68669 0.12967,1.37778 0.59866,1.8873c0.469,0.50952 1.13959,0.78515 1.83134,0.75269c0.89143,0.0049 1.76572,-0.24489 2.52,-0.72l0.47,2.4c-1.07043,0.5674 -2.26886,0.84978 -3.48,0.82z" fill="#000000" stroke="none" stroke-width="1"/><path d="M295.73,234.27412v-5.63c0,-1.15 -0.51,-1.52 -1.31,-1.52c-0.65534,0.01494 -1.28209,0.27133 -1.76,0.72v6.43h-3.16v-13.53l3.16,-0.39v5.71c0.78462,-0.97974 1.95577,-1.57078 3.21,-1.62c1.88,0 3,1.25 3,3.28v6.55z" fill="#000000" stroke="none" stroke-width="1"/><path d="M119.95749,257.74833h-3.13917l-0.2289,-5.29736c-0.0654,-1.25349 -0.0981,-2.37618 -0.0981,-3.36808c0,-0.75209 0.01635,-1.46604 0.04905,-2.14183l-2.09278,9.38483h-3.02473l-2.22358,-9.38483c0.0763,1.12269 0.11445,2.18543 0.11445,3.18823c0,0.76299 -0.01635,1.55323 -0.04905,2.37073l-0.24524,5.24831h-3.12283l1.01369,-13.52135h4.05477l2.02738,9.17228l1.89659,-9.17228h4.05477z" fill="#000000" stroke="none" stroke-width="1"/><path d="M219.94209,257.74833l-0.70305,-2.91028h-3.94032l-0.68669,2.91028h-3.31903l4.08747,-13.52135h3.89127l4.07112,13.52135zM215.85462,252.51637h2.84488l-1.42244,-5.96771z" fill="#000000" stroke="none" stroke-width="1"/><path d="M307.37234,250.43994l3.89127,7.3084h-3.48253l-2.32168,-5.15021l-2.28898,5.15021h-3.40077l3.79317,-7.1776l-3.49887,-6.34375h3.48253l1.94563,4.33272l2.04374,-4.33272h3.40078z" fill="#000000" stroke="none" stroke-width="1"/><path d="M316.6226,243.88364c1.01369,0 1.89113,0.14715 2.63233,0.44145c0.75209,0.2834 1.43334,0.7194 2.04374,1.30799l-1.47149,1.73308c-0.92649,-0.75209 -1.91839,-1.12814 -2.97568,-1.12814c-0.5559,0 -0.99734,0.11444 -1.32434,0.34334c-0.327,0.218 -0.4905,0.545 -0.4905,0.981c0,0.2943 0.07085,0.53955 0.21255,0.73575c0.1417,0.1853 0.3924,0.36515 0.75209,0.53955c0.37059,0.1635 0.92104,0.35969 1.65134,0.58859c1.38429,0.4469 2.39798,0.99189 3.04107,1.63499c0.654,0.64309 0.981,1.55869 0.981,2.74678c0,0.83929 -0.218,1.58594 -0.654,2.23994c-0.42509,0.64309 -1.04094,1.14449 -1.84753,1.50418c-0.8066,0.3488 -1.76033,0.5232 -2.86123,0.5232c-1.11179,0 -2.09278,-0.1744 -2.94298,-0.5232c-0.85019,-0.3488 -1.58049,-0.81749 -2.19088,-1.40608l1.61864,-1.78214c0.52319,0.4469 1.05729,0.78479 1.60229,1.01369c0.5559,0.218 1.16084,0.327 1.81484,0.327c0.6649,0 1.18809,-0.14714 1.56959,-0.44144c0.3815,-0.2943 0.57224,-0.70305 0.57224,-1.22624c0,-0.3379 -0.07085,-0.62129 -0.21255,-0.85019c-0.1417,-0.2289 -0.3924,-0.43055 -0.75209,-0.60495c-0.3488,-0.1853 -0.85019,-0.3815 -1.50419,-0.58859c-1.50419,-0.4578 -2.57238,-1.01914 -3.20458,-1.68404c-0.6322,-0.6649 -0.94829,-1.50419 -0.94829,-2.51788c0,-0.7848 0.2071,-1.47149 0.6213,-2.06008c0.42509,-0.58859 1.00824,-1.04093 1.74943,-1.35703c0.7412,-0.327 1.58049,-0.4905 2.51788,-0.4905z" fill="#000000" stroke="none" stroke-width="1"/><path d="M233.56904,243.86443v13.89719h-2.73043l-0.14715,-1.16071c-0.7303,0.98294 -1.71673,1.47442 -2.95933,1.47442c-1.28619,0 -2.26718,-0.47057 -2.94298,-1.41168c-0.6649,-0.95157 -0.99734,-2.25346 -0.99734,-3.90564c0,-1.01432 0.17439,-1.91884 0.52319,-2.71356c0.35969,-0.79472 0.8611,-1.41691 1.50419,-1.86656c0.64309,-0.44964 1.37884,-0.67446 2.20723,-0.67446c0.99189,0 1.81483,0.30848 2.46883,0.92543v-4.87813zM228.69678,255.91076c0.71939,0 1.31888,-0.37644 1.79848,-1.12934v-4.28209c-0.2507,-0.29279 -0.50684,-0.50716 -0.76844,-0.64309c-0.2507,-0.13593 -0.53409,-0.20391 -0.85019,-0.20391c-0.5777,0 -1.03549,0.25619 -1.37339,0.76859c-0.3379,0.51239 -0.50684,1.29664 -0.50684,2.35279c0,1.16071 0.14714,1.97636 0.44144,2.44691c0.2943,0.4601 0.71394,0.69015 1.25894,0.69015z" fill="#000000" stroke="none" stroke-width="1"/><path d="M245.2821,243.86443v13.89719h-2.73043l-0.14715,-1.16071c-0.7303,0.98294 -1.71673,1.47442 -2.95933,1.47442c-1.28619,0 -2.26718,-0.47057 -2.94298,-1.41168c-0.6649,-0.95157 -0.99734,-2.25346 -0.99734,-3.90564c0,-1.01432 0.17439,-1.91884 0.52319,-2.71356c0.35969,-0.79472 0.8611,-1.41691 1.50419,-1.86656c0.64309,-0.44964 1.37884,-0.67446 2.20723,-0.67446c0.99189,0 1.81484,0.30848 2.46884,0.92543v-4.87813zM240.40983,255.91076c0.71939,0 1.31889,-0.37644 1.79849,-1.12934v-4.28209c-0.2507,-0.29279 -0.50685,-0.50716 -0.76845,-0.64309c-0.2507,-0.13593 -0.53409,-0.20391 -0.85019,-0.20391c-0.5777,0 -1.03549,0.25619 -1.37339,0.76859c-0.3379,0.51239 -0.50684,1.29664 -0.50684,2.35279c0,1.16071 0.14714,1.97636 0.44144,2.44691c0.2943,0.4601 0.71394,0.69015 1.25894,0.69015z" fill="#000000" stroke="none" stroke-width="1"/><path d="M267.77116,243.86443v13.89719h-2.73043l-0.14715,-1.16071c-0.7303,0.98294 -1.71674,1.47442 -2.95933,1.47442c-1.28619,0 -2.26718,-0.47057 -2.94297,-1.41168c-0.6649,-0.95157 -0.99734,-2.25346 -0.99734,-3.90564c0,-1.01432 0.1744,-1.91884 0.5232,-2.71356c0.35969,-0.79472 0.86109,-1.41691 1.50419,-1.86656c0.6431,-0.44964 1.37884,-0.67446 2.20723,-0.67446c0.99189,0 1.81484,0.30848 2.46883,0.92543v-4.87813zM264.69738,254.78142v-4.28209c-0.2507,-0.29279 -0.50684,-0.50716 -0.76844,-0.64309c-0.2507,-0.13593 -0.53409,-0.20391 -0.85019,-0.20391c-0.5777,0 -1.0355,0.25619 -1.37339,0.76859c-0.3379,0.51239 -0.50684,1.29664 -0.50684,2.35279c0,1.16071 0.14714,1.97636 0.44144,2.44691c0.2943,0.4601 0.71393,0.69015 1.25893,0.69015h0.00001c0.7194,0 1.31888,-0.37645 1.79848,-1.12934z" fill="#000000" stroke="none" stroke-width="1"/><path d="M329.4404,247.50342c0.9047,0 1.60774,0.26141 2.10913,0.78426c0.5123,0.52285 0.76844,1.26006 0.76844,2.21164v7.26229h-3.09013v-6.76037c0,-0.50192 -0.0872,-0.84701 -0.2616,-1.03523c-0.1635,-0.19868 -0.39785,-0.29802 -0.70304,-0.29802c-0.6322,0 -1.23169,0.42351 -1.79849,1.27051v6.82312h-3.09013v-13.89719l3.09013,-0.29802v5.31733c0.42509,-0.4601 0.87744,-0.80519 1.35704,-1.03523c0.4796,-0.23004 1.01914,-0.34508 1.61864,-0.34508z" fill="#000000" stroke="none" stroke-width="1"/><path d="M135.72615,258.07533c-0.89379,0 -1.59139,-0.24574 -2.09278,-0.73721c-0.5014,-0.49147 -0.75209,-1.19209 -0.75209,-2.10183v-11.37185l3.09013,-0.31371v11.57575c0,0.40781 0.1744,0.61172 0.5232,0.61172c0.1853,0 0.35424,-0.03137 0.50684,-0.09411l0.60495,2.10183c-0.55589,0.2196 -1.18265,0.32939 -1.88024,0.32939z" fill="#000000" stroke="none" stroke-width="1"/><path d="M166.21913,258.07533c-0.89379,0 -1.59139,-0.24574 -2.09278,-0.73721c-0.5014,-0.49147 -0.75209,-1.19209 -0.75209,-2.10183v-11.37185l3.09013,-0.31371v11.57575c0,0.40781 0.17439,0.61172 0.52319,0.61172c0.1853,0 0.35425,-0.03137 0.50685,-0.09411l0.60494,2.10183c-0.55589,0.2196 -1.18264,0.32939 -1.88023,0.32939z" fill="#000000" stroke="none" stroke-width="1"/><path d="M367.98746,243.55073v14.2109h-3.09013v-13.89719z" fill="#000000" stroke="none" stroke-width="1"/><path d="M256.74989,252.79226c0,0.40251 -0.0218,0.74969 -0.0654,1.04152h-6.4255c0.10899,0.80504 0.3597,1.36855 0.75209,1.69058c0.39239,0.32202 0.93195,0.48302 1.61864,0.48302c0.4142,0 0.8175,-0.06541 1.20989,-0.19623c0.39239,-0.14088 0.81749,-0.35723 1.27529,-0.64907l1.25894,1.58492c-1.20989,0.88554 -2.55603,1.32831 -4.03842,1.32831c-1.67858,0 -2.97022,-0.45283 -3.87492,-1.3585c-0.89379,-0.91573 -1.34069,-2.14342 -1.34069,-3.68305c0,-0.9761 0.1853,-1.85158 0.55589,-2.62644c0.3815,-0.77484 0.93739,-1.38366 1.66769,-1.82644c0.7303,-0.45283 1.60229,-0.67924 2.61598,-0.67924c1.50419,0 2.67593,0.4327 3.51522,1.29812c0.8502,0.86542 1.27529,2.06291 1.27529,3.59248zM253.72518,251.99226c-0.0327,-1.4692 -0.59404,-2.20379 -1.68403,-2.20379c-0.5341,0 -0.94829,0.18114 -1.24259,0.5434c-0.2943,0.36226 -0.47415,0.95598 -0.53955,1.78114h3.46617z" fill="#000000" stroke="none" stroke-width="1"/><path d="M198.57507,252.79226c0,0.40251 -0.0218,0.74969 -0.0654,1.04152h-6.4255c0.10899,0.80504 0.3597,1.36855 0.75209,1.69058c0.39239,0.32202 0.93195,0.48302 1.61864,0.48302c0.4142,0 0.8175,-0.06541 1.20989,-0.19623c0.39239,-0.14088 0.8175,-0.35723 1.27529,-0.64907l1.25894,1.58492c-1.20989,0.88554 -2.55604,1.32831 -4.03842,1.32831c-1.67858,0 -2.97022,-0.45283 -3.87492,-1.3585c-0.89379,-0.91573 -1.34069,-2.14342 -1.34069,-3.68305c0,-0.9761 0.1853,-1.85158 0.55589,-2.62644c0.3815,-0.77484 0.93739,-1.38366 1.66769,-1.82644c0.7303,-0.45283 1.60229,-0.67924 2.61598,-0.67924c1.50419,0 2.67593,0.4327 3.51522,1.29812c0.8502,0.86542 1.27529,2.06291 1.27529,3.59248zM195.55034,251.99226c-0.0327,-1.4692 -0.59404,-2.20379 -1.68403,-2.20379c-0.5341,0 -0.94829,0.18114 -1.24259,0.5434c-0.2943,0.36226 -0.47414,0.95598 -0.53955,1.78114h3.46617z" fill="#000000" stroke="none" stroke-width="1"/><path d="M359.6991,247.90166c0.9047,0 1.60774,0.25156 2.10914,0.75471c0.5123,0.50315 0.76844,1.2126 0.76844,2.12833v6.98873h-3.09013v-6.50572c0,-0.48301 -0.08175,-0.8151 -0.24525,-0.99623c-0.1635,-0.1912 -0.40329,-0.2868 -0.71939,-0.2868c-0.6322,0 -1.23169,0.41761 -1.79849,1.25284v6.5359h-3.09013v-9.56988h2.69773l0.21255,1.13208c0.4469,-0.48301 0.92649,-0.84025 1.43878,-1.0717c0.5123,-0.24151 1.08454,-0.36227 1.71674,-0.36227z" fill="#000000" stroke="none" stroke-width="1"/><path d="M130.56013,257.77344h-2.68138l-0.1308,-1.20756c-0.75209,1.0063 -1.79848,1.50945 -3.13917,1.50945c-0.9483,0 -1.66769,-0.26164 -2.15819,-0.78492c-0.49049,-0.53334 -0.73574,-1.27296 -0.73574,-2.21888v-6.86798h3.09013v6.50572c0,0.47296 0.08174,0.80504 0.24524,0.99623c0.1635,0.18114 0.4142,0.27169 0.75209,0.27169c0.6431,0 1.199,-0.37232 1.66769,-1.11699v-6.65666h3.09013z" fill="#000000" stroke="none" stroke-width="1"/><path d="M351.21402,257.77344h-2.68138l-0.1308,-1.20756c-0.75209,1.0063 -1.79848,1.50945 -3.13917,1.50945c-0.94829,0 -1.66769,-0.26164 -2.15818,-0.78492c-0.4905,-0.53334 -0.73575,-1.27296 -0.73575,-2.21888v-6.86798h3.09013v6.50572c0,0.47296 0.08175,0.80504 0.24525,0.99623c0.1635,0.18114 0.4142,0.27169 0.75209,0.27169c0.6431,0 1.19899,-0.37232 1.66769,-1.11699v-6.65666h3.09013z" fill="#000000" stroke="none" stroke-width="1"/><path d="M373.8418,248.20355l-3.13918,4.19627l3.40078,5.37363h-3.48253l-3.07378,-5.22269l3.15553,-4.3472z" fill="#000000" stroke="none" stroke-width="1"/><path d="M185.6341,257.10618l-0.48,1.25c-1,2.78 -2.17,3.62 -4.17,3.62c-0.97706,0.01063 -1.94408,-0.19781 -2.83,-0.61l0.94,-2.4c0.45602,0.24968 0.96119,0.39646 1.48,0.43c0.67,0 1,-0.24 1.35,-1.16l0.27,-0.74l-3.73,-9.46h3.38l2,6.27l1.85,-6.27h3.36z" fill="#000000" stroke="none" stroke-width="1"/><path d="M279.89553,257.82223c-0.73212,-0.02185 -1.45685,-0.15331 -2.15,-0.39l-3,0.41v-13.86l3.16,-0.39v5.38c0.67424,-0.77953 1.64027,-1.24626 2.67,-1.29c2.35,0 4.05,1.93 4.05,5c0.0849,1.31661 -0.37247,2.61064 -1.26586,3.58147c-0.89339,0.97083 -2.14504,1.53395 -3.46415,1.55853zM279.57553,250.20223c-0.59697,-0.0017 -1.1697,0.23604 -1.59,0.66v4.19c0.43299,0.27316 0.93841,0.4091 1.45,0.39c1.35,0 2.13,-1.06 2.13,-2.64c0,-1.58 -0.75,-2.6 -1.99,-2.6z" fill="#000000" stroke="none" stroke-width="1"/><path d="M292.20553,257.06223l-0.48,1.25c-1,2.78 -2.17,3.62 -4.17,3.62c-0.97706,0.01063 -1.94408,-0.19781 -2.83,-0.61l0.94,-2.4c0.45602,0.24968 0.96119,0.39646 1.48,0.43c0.67,0 1,-0.24 1.35,-1.16l0.27,-0.74l-3.73,-9.46h3.38l2,6.27l1.85,-6.27h3.36z" fill="#000000" stroke="none" stroke-width="1"/><path d="M203.28553,257.65508h-3.16v-9.36l3.16,-0.39v1.4c0.41142,-0.89595 1.30412,-1.4729 2.29,-1.48c0.55042,0.00057 1.09253,0.13439 1.58,0.39l-0.64,2.75c-0.3649,-0.18851 -0.76928,-0.28789 -1.18,-0.29c-0.87662,0.04569 -1.65159,0.5843 -2,1.39z" fill="#000000" stroke="none" stroke-width="1"/><path d="M337.28553,257.79794h-3.16v-9.36l3.16,-0.39v1.4c0.41142,-0.89595 1.30412,-1.4729 2.29,-1.48c0.55042,0.00057 1.09253,0.13439 1.58,0.39l-0.64,2.75c-0.3649,-0.18851 -0.76928,-0.28789 -1.18,-0.29c-0.87662,0.04569 -1.65159,0.5843 -2,1.39z" fill="#000000" stroke="none" stroke-width="1"/><path d="M142.52838,258.10794c-2.36,0 -3.63,-1 -3.5,-3.46l0.14,-3.63l-1.45,-0.24l0.06,-2l1.43,-0.47v-2.17h3v2.27h2.51l-0.06,2.48h-2.54l-0.11,3.42c0,0.88 0.48,1.25 1.25,1.25c0.42753,-0.0144 0.84981,-0.09885 1.25,-0.25l0.37,2.46c-0.75826,0.24633 -1.55302,0.36132 -2.35,0.34z" fill="#000000" stroke="none" stroke-width="1"/><path d="M147.77266,246.92794c-1.15,0 -1.86,-0.6 -1.86,-1.68c-0.02594,-0.4873 0.16782,-0.96059 0.52803,-1.28981c0.36021,-0.32922 0.84896,-0.47974 1.33198,-0.41019c1.17,0 1.86,0.59 1.86,1.7c0,1.11 -0.69,1.68 -1.86,1.68zM146.19267,257.79794v-9.36l3.16,-0.39v9.75z" fill="#000000" stroke="none" stroke-width="1"/><path d="M174.09267,256.50507c-0.62802,0.90117 -1.65169,1.44465 -2.75,1.46c-0.73723,0.04078 -1.46006,-0.21554 -2.00691,-0.71165c-0.54685,-0.49611 -0.87212,-1.19065 -0.90309,-1.92835c0,-1.81 1.36,-3.26 5.64,-3.38v-0.19c0,-1 -0.52,-1.45 -1.68,-1.45c-1.14038,0.09106 -2.24666,0.4325 -3.24,1l-0.65,-2.34c1.34901,-0.72053 2.85078,-1.10797 4.38,-1.13c3.29,0 4.38,1.5 4.34,4.16v2.82c0,0.66 0.12,0.72 0.78,0.78l-0.31,2.26c-2.07,0.26 -3.09,-0.29 -3.52,-1.34zM174.09267,253.41508c-2,0.23 -2.67,0.6 -2.67,1.44c0.01732,0.29352 0.15466,0.56697 0.37976,0.75613c0.2251,0.18916 0.51812,0.27736 0.81024,0.24387c0.56128,0.0038 1.09833,-0.22844 1.48,-0.64z" fill="#000000" stroke="none" stroke-width="1"/><path d="M157.66409,247.96794c2.36,0 4.08,1.93 4.08,5c0.08497,1.31831 -0.37374,2.61389 -1.26931,3.58503c-0.89557,0.97115 -2.14983,1.53308 -3.47069,1.55497c-0.67796,-0.00839 -1.35131,-0.11275 -2,-0.31v4.26h-3.15v-13.62l3.15,-0.39v1.21c0.66814,-0.78191 1.6323,-1.24949 2.66,-1.29zM155.00409,255.33794c0.43348,0.27201 0.93855,0.40786 1.45,0.39c1.36,0 2.13,-1.06 2.13,-2.64c0,-1.58 -0.69,-2.6 -2,-2.6c-0.5876,-0.0086 -1.15506,0.21408 -1.58,0.62z" fill="#000000" stroke="none" stroke-width="1"/></g></g></svg>