<svg version="1.1" xmlns="http://www.w3.org/2000/svg" xmlns:xlink="http://www.w3.org/1999/xlink" width="16.2" height="18.2" viewBox="0,0,16.2,18.2"><g transform="translate(-232.15,-170.65)"><g data-paper-data="{&quot;isPaintingLayer&quot;:true}" fill-rule="nonzero" stroke-width="1" stroke-linecap="butt" stroke-linejoin="miter" stroke-miterlimit="10" stroke-dasharray="" stroke-dashoffset="0" style="mix-blend-mode: normal"><path d="M242.95,186.25c-1.5,0.3 -2.9,0.1 -4.2,-0.5l-2.5,2.5c-0.8,0.8 -2.2,0.8 -3,0l-0.5,-0.5c-0.8,-0.8 -0.8,-2.2 0,-3l2.7,-2.7c-0.2,-0.7 -0.4,-1.6 -0.3,-2.5c0.2,-3.2 2.9,-5.7 6.1,-5.8c4.1,-0.1 7.3,3.6 6.4,7.8c-0.4,2.1 -2.7,4.3 -4.7,4.7z" fill-opacity="0.2" fill="#000000" stroke="none"/><path d="M232.85,186.55v0c-0.8,-0.8 -0.8,-2.2 0,-3l7.2,-7.2c0.8,-0.8 2.2,-0.8 3,0v0l0.5,0.5v0c0.8,0.8 0.8,2.2 0,3l-7.2,7.2c-0.8,0.8 -2.2,0.8 -3,0v0z" fill="#000000" stroke="none"/><path d="M233.85,186.45l-0.5,-0.5c-0.5,-0.5 -0.5,-1.3 0,-1.8l7.2,-7.2c0.5,-0.5 1.3,-0.5 1.8,0l0.5,0.5c0.5,0.5 0.5,1.3 0,1.8l-7.2,7.2c-0.5,0.5 -1.3,0.5 -1.8,0z" fill="#ffff00" stroke="none"/><path d="M241.45,183.95c-3.5,0 -6.4,-2.8 -6.4,-6.4c0,-3.6 2.8,-6.4 6.4,-6.4c3.6,0 6.4,2.8 6.4,6.4c0,3.6 -2.9,6.4 -6.4,6.4z" fill="#ffff00" stroke="#000000"/><path d="M238.55,177.65c0,-1.6 1.3,-2.9 2.9,-2.9c1.6,0 2.9,1.3 2.9,2.9c0,1.6 -1.3,2.9 -2.9,2.9c-1.6,0 -2.9,-1.3 -2.9,-2.9z" fill="#000000" stroke="none"/></g></g></svg>