<svg version="1.1" xmlns="http://www.w3.org/2000/svg" xmlns:xlink="http://www.w3.org/1999/xlink" width="28.1" height="9.025" viewBox="0,0,28.1,9.025"><g transform="translate(-225.95,-175.4875)"><g data-paper-data="{&quot;isPaintingLayer&quot;:true}" fill="#000000" fill-rule="nonzero" stroke="none" stroke-width="0.5" stroke-linecap="butt" stroke-linejoin="miter" stroke-miterlimit="10" stroke-dasharray="" stroke-dashoffset="0" style="mix-blend-mode: normal"><path d="M236.4875,179c0,-1.93991 1.57259,-3.5125 3.5125,-3.5125c1.93991,0 3.5125,1.57259 3.5125,3.5125c0,1.93991 -1.57259,3.5125 -3.5125,3.5125c-1.93991,0 -3.5125,-1.57259 -3.5125,-3.5125z"/><path d="M247.025,181c0,-1.93991 1.57259,-3.5125 3.5125,-3.5125c1.93991,0 3.5125,1.57259 3.5125,3.5125c0,1.93991 -1.57259,3.5125 -3.5125,3.5125c-1.93991,0 -3.5125,-1.57259 -3.5125,-3.5125z"/><path d="M225.95,181c0,-1.93991 1.57259,-3.5125 3.5125,-3.5125c1.93991,0 3.5125,1.57259 3.5125,3.5125c0,1.93991 -1.57259,3.5125 -3.5125,3.5125c-1.93991,0 -3.5125,-1.57259 -3.5125,-3.5125z"/></g></g></svg>