<svg version="1.1" xmlns="http://www.w3.org/2000/svg" xmlns:xlink="http://www.w3.org/1999/xlink" width="17.0375" height="18.9375" viewBox="0,0,17.0375,18.9375"><g transform="translate(-231.48125,-170.53125)"><g data-paper-data="{&quot;isPaintingLayer&quot;:true}" fill-rule="nonzero" stroke="none" stroke-width="1" stroke-linecap="butt" stroke-linejoin="miter" stroke-miterlimit="10" stroke-dasharray="" stroke-dashoffset="0" style="mix-blend-mode: normal"><path d="M233.98125,172.46875h12c1.4,0 2.5,1.1 2.5,2.5v12c0,1.4 -1.1,2.5 -2.5,2.5h-12c-1.4,0 -2.5,-1.1 -2.5,-2.5v-12c0,-1.4 1.1,-2.5 2.5,-2.5z" fill-opacity="0.2" fill="#000000"/><g><path d="M231.51875,173.03125v-0.4c0,-1.2 0.9,-2.1 2.1,-2.1h12.8c1.2,0 2.1,0.9 2.1,2.1v0.4v0.8v0.4c0,1.2 -0.9,2.1 -2.1,2.1h-12.8c-1.2,0 -2.1,-0.9 -2.1,-2.1v-0.4z" fill="#000000"/><path d="M232.51875,173.83125v-0.8c0,-0.8 0.7,-1.5 1.5,-1.5h12c0.8,0 1.5,0.7 1.5,1.5v0.8c0,0.8 -0.7,1.5 -1.5,1.5h-12c-0.9,0 -1.5,-0.7 -1.5,-1.5z" fill="#ffff00"/><path d="M231.51875,178.53125v-0.4c0,-1.2 0.9,-2.1 2.1,-2.1h12.8c1.2,0 2.1,0.9 2.1,2.1v0.4v0.8v0.4c0,1.2 -0.9,2.1 -2.1,2.1h-12.8c-1.2,0 -2.1,-0.9 -2.1,-2.1v-0.4z" fill="#000000"/><path d="M232.51875,179.33125v-0.8c0,-0.8 0.7,-1.5 1.5,-1.5h12c0.8,0 1.5,0.7 1.5,1.5v0.8c0,0.8 -0.7,1.5 -1.5,1.5h-12c-0.9,0 -1.5,-0.7 -1.5,-1.5z" fill="#ffff00"/><path d="M231.51875,184.03125v-0.4c0,-1.2 0.9,-2.1 2.1,-2.1h12.8c1.2,0 2.1,0.9 2.1,2.1v0.4v0.8v0.4c0,1.2 -0.9,2.1 -2.1,2.1h-12.8c-1.2,0 -2.1,-0.9 -2.1,-2.1v-0.4z" fill="#000000"/><path d="M232.51875,184.83125v-0.8c0,-0.8 0.7,-1.5 1.5,-1.5h12c0.8,0 1.5,0.7 1.5,1.5v0.8c0,0.8 -0.7,1.5 -1.5,1.5h-12c-0.9,0 -1.5,-0.7 -1.5,-1.5z" fill="#ffff00"/></g></g></g></svg>