<svg version="1.1" xmlns="http://www.w3.org/2000/svg" xmlns:xlink="http://www.w3.org/1999/xlink" width="153" height="41" viewBox="0,0,153,41"><g transform="translate(-243.5,-159.5)"><g stroke="none" stroke-miterlimit="10"><path d="M390.15,200.5h-140.3c-3.50245,-0.01098 -6.33902,-2.84755 -6.35,-6.35v-26.3c0.01098,-3.50245 2.84755,-6.33902 6.35,-6.35h140.3c3.50245,0.01098 6.33902,2.84755 6.35,6.35v26.3c-0.01098,3.50245 -2.84755,6.33902 -6.35,6.35z" fill="#000000" opacity="0.1"/><path d="M390.15,198.5h-140.3c-3.50245,-0.01098 -6.33902,-2.84755 -6.35,-6.35v-26.3c0.01098,-3.50245 2.84755,-6.33902 6.35,-6.35h140.3c3.50245,0.01098 6.33902,2.84755 6.35,6.35v26.3c-0.01098,3.50245 -2.84755,6.33902 -6.35,6.35z" fill="#ffffff" opacity="0.95"/><g fill="#000000"><g><path d="M342.60866,185.88981c-1.58825,0.11098 -3.14666,-0.47174 -4.27247,-1.59754c-1.1258,-1.1258 -1.70851,-2.68421 -1.59753,-4.27246c-0.06477,-1.58029 0.53114,-3.11623 1.64477,-4.23934c1.11362,-1.12311 2.64445,-1.73202 4.22523,-1.68066c3.35,0 5.89,2.05 5.89,5.85c0.06173,1.58476 -0.53726,3.124 -1.65395,4.25017c-1.11669,1.12617 -2.65082,1.73816 -4.23604,1.68983zM342.60866,176.39981c-1.91,0 -3,1.45 -3,3.55c0,2.1 1.12,3.64 3,3.64c1.88,0 3,-1.46 3,-3.57c0,-2.11 -1.12,-3.62 -3,-3.62z"/><path d="M334.76705,182.36001c0,1.8 -1,3.28 -4.55,3.28h-4.92v-11.28h4.88c3.35,0 4.25,1.27 4.25,2.93c-0.00099,1.21498 -0.88885,2.24726 -2.09,2.43c1.36651,0.12795 2.4155,1.2676 2.43,2.64zM329.90705,176.53001h-1.84v2.59h1.7c1.19,0 1.8,-0.49 1.8,-1.33c0,-0.84 -0.58,-1.3 -1.66,-1.3zM329.90705,180.90001h-1.84v2.6h1.93c1.3,0 1.89,-0.42 1.89,-1.3c0,-0.88 -0.76,-1.34 -1.98,-1.34z"/><path d="M355.35366,179.38001l3.78,-5h3.28l-4.48,5.48l4.55,5.76h-3.42l-3.71,-4.95v0l-0.01,-1.29z"/><path d="M357.05048,179.38001l-0.01,1.29v0l-3.71,4.95h-3.42l4.55,-5.76l-4.48,-5.48h3.28l3.78,5z"/></g><g><path d="M316.53092,185.64001h-4v-11.28h4.19c4,0 6.22,2.2 6.22,5.55c0,3.35 -2.29,5.73 -6.41,5.73zM316.53092,176.64001h-1.17v6.68h1.33c0.91477,0.11675 1.8324,-0.19371 2.48838,-0.84188c0.65598,-0.64817 0.9774,-1.56202 0.87162,-2.47812c0,-2.31 -1.17,-3.36 -3.51,-3.36z"/><path d="M299.18461,185.62501h-2.85l-0.83,-2.4h-4.17l-0.81,2.4h-2.85l4,-11.25h3.58zM293.43461,176.62501l-1.53,4.37h3z"/><path d="M283.61634,182.44069c0,-0.75 -0.81,-1 -2.3,-1.42c-1.49,-0.42 -3.62,-1.21 -3.62,-3.46c0,-2.09 1.53,-3.47 4.32,-3.47c1.46928,-0.03535 2.92282,0.3091 4.22,1l-0.56,2.36c-1.12029,-0.60882 -2.36591,-0.95102 -3.64,-1c-1,0 -1.48,0.34 -1.48,1c0,0.66 1,1 2.38,1.41c1.73,0.46 3.53,1.26 3.53,3.4c0,2.14 -1.66,3.65 -4.61,3.65c-1.50631,0.0231 -2.99568,-0.32008 -4.34,-1l0.54,-2.38c1.18345,0.6401 2.50464,0.98326 3.85,1c1.02,-0.03 1.71,-0.4 1.71,-1.09z"/><path d="M308.26074,174.32501h2.68v11.35h-3l-4.78,-7.35v7.29h-2.65v-11.29h3.09l4.69,7.3z"/></g></g></g></g></svg>