<svg version="1.1" xmlns="http://www.w3.org/2000/svg" xmlns:xlink="http://www.w3.org/1999/xlink" width="98.66929" height="85.55906" viewBox="0,0,98.66929,85.55906"><g transform="translate(-287,-151.44094)"><g stroke-miterlimit="10"><g><path d="M289,217v-62h62v62z" fill="none" stroke="#000000" stroke-width="4" stroke-linejoin="round"/><path d="M289,217v-62h62v62z" fill="#d10000" stroke="none" stroke-width="1" stroke-linejoin="miter"/></g><path d="M298,208v-44h44v44z" fill="#ff0000" stroke="none" stroke-width="1" stroke-linejoin="miter"/><path d="M342,208h-44v-23l22,7l22,-7z" fill="#ffffff" stroke="none" stroke-width="1" stroke-linejoin="miter"/><path d="M304,208v-9h9v9z" fill="#000000" stroke="none" stroke-width="1" stroke-linejoin="miter"/><path d="M327,208v-9h9v9z" fill="#000000" stroke="none" stroke-width="1" stroke-linejoin="miter"/><g><path d="M334.09,219h16l-8,16z" fill="none" stroke="#000000" stroke-width="4" stroke-linejoin="round"/><path d="M334.09,219h16l-8,16z" fill="#b3b3b3" stroke="none" stroke-width="1" stroke-linejoin="miter"/></g><g><path d="M290.09,219h16l-8,16z" fill="none" stroke="#000000" stroke-width="4" stroke-linejoin="round"/><path d="M290.09,219h16l-8,16z" fill="#b3b3b3" stroke="none" stroke-width="1" stroke-linejoin="miter"/></g><g><path d="M312.09,219h16l-8,16z" fill="none" stroke="#000000" stroke-width="4" stroke-linejoin="round"/><path d="M312.09,219h16l-8,16z" fill="#b3b3b3" stroke="none" stroke-width="1" stroke-linejoin="miter"/></g><path d="M383.40157,152.19685c0,-0.41748 0.50765,-0.75591 1.13386,-0.75591c0.62621,0 1.13386,0.33843 1.13386,0.75591c0,0.41748 -0.50765,0.75591 -1.13386,0.75591c-0.62621,0 -1.13386,-0.33843 -1.13386,-0.75591zM384.52997,152.78367c0.77963,0.00257 0.8601,-0.48624 0.8601,-0.48624h-1.67203c0,0 0.05986,0.48376 0.81193,0.48624zM384.94901,152.06364c0.08469,0 0.15335,-0.04577 0.15335,-0.10223c0,-0.05646 -0.06866,-0.10223 -0.15335,-0.10223c-0.08469,0 -0.15335,0.04577 -0.15335,0.10223c0,0.05646 0.06866,0.10223 0.15335,0.10223zM384.12185,152.06364c0.08469,0 0.15335,-0.04577 0.15335,-0.10223c0,-0.05646 -0.06866,-0.10223 -0.15335,-0.10223c-0.08469,0 -0.15335,0.04577 -0.15335,0.10223c0,0.05646 0.06866,0.10223 0.15335,0.10223z" fill="#000000" stroke="none" stroke-width="0" stroke-linejoin="miter"/></g></g></svg>