<svg version="1.1" xmlns="http://www.w3.org/2000/svg" xmlns:xlink="http://www.w3.org/1999/xlink" width="17" height="18.57873" viewBox="0,0,17,18.57873"><g transform="translate(-231.5,-170.71063)"><g data-paper-data="{&quot;isPaintingLayer&quot;:true}" fill-rule="nonzero" stroke-linejoin="miter" stroke-miterlimit="10" stroke-dasharray="" stroke-dashoffset="0" style="mix-blend-mode: normal"><path d="M234,176.26064h12c1.4,0 2.5,1.1 2.5,2.5v4c0,1.4 -1.1,2.5 -2.5,2.5h-7.9l-3.8,3.6c-0.6,0.5 -1.5,0.6 -2.1,0.1c-0.4,-0.5 -0.7,-1.1 -0.7,-1.8v-8.4c0,-1.4 1.1,-2.5 2.5,-2.5z" fill-opacity="0.2" fill="#000000" stroke="none" stroke-width="1" stroke-linecap="butt"/><g><path d="M234,183.71064v0c-1.4,0 -2.5,-1.1 -2.5,-2.5v-8c0,-1.4 1.1,-2.5 2.5,-2.5v0h12v0c1.4,0 2.5,1.1 2.5,2.5v8c0,1.4 -1.1,2.5 -2.5,2.5v0z" fill="#000000" stroke="none" stroke-width="1" stroke-linecap="butt"/><path d="M237.7,183.71064l-3.9,3.8c-0.2,0.2 -0.5,0.3 -0.8,0.3v0c-0.8,0 -1.5,-0.7 -1.5,-1.5v-9.5" fill="#000000" stroke="none" stroke-width="1" stroke-linecap="butt"/><path d="M246,182.31064h-12c-0.8,0 -1.5,-0.7 -1.5,-1.5v-7.5c0,-0.8 0.7,-1.5 1.5,-1.5h12c0.8,0 1.5,0.7 1.5,1.5v7.5c0,0.8 -0.7,1.5 -1.5,1.5z" fill="#ffff00" stroke="none" stroke-width="1" stroke-linecap="butt"/><path d="M238.8,177.21064c0,-0.7 0.6,-1.3 1.3,-1.3c0.7,0 1.3,0.6 1.3,1.3c0,0.7 -0.6,1.3 -1.3,1.3c-0.7,0 -1.3,-0.6 -1.3,-1.3z" fill="#000000" stroke="none" stroke-width="1" stroke-linecap="butt"/><path d="M242.5,177.21064c0,-0.7 0.6,-1.3 1.3,-1.3c0.7,0 1.3,0.6 1.3,1.3c0,0.7 -0.6,1.3 -1.3,1.3c-0.7,0 -1.3,-0.6 -1.3,-1.3z" fill="#000000" stroke="none" stroke-width="1" stroke-linecap="butt"/><path d="M235,177.21064c0,-0.7 0.6,-1.3 1.3,-1.3c0.7,0 1.3,0.6 1.3,1.3c0,0.7 -0.6,1.3 -1.3,1.3c-0.7,0 -1.3,-0.6 -1.3,-1.3z" fill="#000000" stroke="none" stroke-width="1" stroke-linecap="butt"/><path d="M238.5,180.51064l-5,5c-0.3,0.2 -0.7,0.1 -0.7,-0.3v-5.1" fill="#ffff00" stroke="#ffff00" stroke-width="0.5" stroke-linecap="round"/></g></g></g></svg>