<svg version="1.1" xmlns="http://www.w3.org/2000/svg" xmlns:xlink="http://www.w3.org/1999/xlink" width="117.7" height="74.2469" viewBox="0,0,117.7,74.2469"><g transform="translate(-181.17,-219.94404)"><g data-paper-data="{&quot;isPaintingLayer&quot;:true}" fill="#000000" fill-rule="nonzero" stroke="none" stroke-width="1" stroke-linecap="butt" stroke-linejoin="miter" stroke-miterlimit="10" stroke-dasharray="" stroke-dashoffset="0" style="mix-blend-mode: normal"><path d="M186.32,234.58412c-0.73212,-0.02185 -1.45685,-0.15331 -2.15,-0.39l-3,0.41v-13.86l3.16,-0.39v5.38c0.67424,-0.77953 1.64027,-1.24626 2.67,-1.29c2.35,0 4.05,1.93 4.05,5c0.0849,1.31661 -0.37247,2.61064 -1.26586,3.58147c-0.89339,0.97083 -2.14504,1.53395 -3.46415,1.55853zM186,226.96412c-0.59697,-0.0017 -1.1697,0.23604 -1.59,0.66v4.19c0.43299,0.27316 0.93841,0.4091 1.45,0.39c1.35,0 2.13,-1.06 2.13,-2.64c0,-1.58 -0.75,-2.6 -1.99,-2.6z"/><path d="M198.63,233.82412l-0.48,1.25c-1,2.78 -2.17,3.62 -4.17,3.62c-0.97706,0.01063 -1.94408,-0.19781 -2.83,-0.61l0.94,-2.4c0.45602,0.24968 0.96119,0.39646 1.48,0.43c0.67,0 1,-0.24 1.35,-1.16l0.27,-0.74l-3.73,-9.46h3.38l2,6.27l1.85,-6.27h3.36z"/><path d="M214.33,234.58412c-4.1,0 -6.88,-2.44 -6.88,-6.66c0,-4.22 2.7,-6.75 6.9,-6.75c1.66953,-0.0358 3.32198,0.3421 4.81,1.1l-1,2.72c-1.11646,-0.66921 -2.38859,-1.03465 -3.69,-1.06c-1.04018,-0.05317 -2.05241,0.34676 -2.77534,1.09654c-0.72293,0.74978 -1.08571,1.77591 -0.99466,2.81346c0,2.56 1.29,4.08 3.73,4.08c0.69168,0.01057 1.37951,-0.10464 2.03,-0.34v-1.94h-3.16v-2.58h6.11v6.33c-1.57175,0.80283 -3.31521,1.21123 -5.08,1.19z"/><path d="M224.71,234.27412h-3.16v-9.36l3.16,-0.39v1.4c0.41142,-0.89595 1.30412,-1.4729 2.29,-1.48c0.55042,0.00057 1.09253,0.13439 1.58,0.39l-0.64,2.75c-0.3649,-0.18851 -0.76928,-0.28789 -1.18,-0.29c-0.87662,0.04569 -1.65159,0.5843 -2,1.39z"/><path d="M231.34,223.40412c-1.15,0 -1.86,-0.6 -1.86,-1.68c-0.02594,-0.4873 0.16782,-0.96059 0.52803,-1.28981c0.36021,-0.32922 0.84896,-0.47974 1.33198,-0.41019c1.17,0 1.86,0.59 1.86,1.7c0,1.11 -0.69,1.68 -1.86,1.68zM229.76,234.27412v-9.36l3.16,-0.39v9.75z"/><path d="M238.85,234.27412h-3.15v-6.9l-1.64,-0.12l0.08,-2l1.54,-0.45v-0.61c0.08,-2.77 1.33,-4 3.73,-4c0.8816,-0.0035 1.75627,0.15583 2.58,0.47c0,0 -0.6,2.63 -0.6,2.6c-0.50235,-0.21982 -1.04195,-0.342 -1.59,-0.36c-0.82,0 -1.11,0.47 -1.11,1.39v0.55h4.05v-0.9c0.08,-2.76 1.35,-4 3.72,-4c0.88816,-0.00413 1.7695,0.15518 2.6,0.47c0,0 -0.61,2.62 -0.61,2.6c-0.49702,-0.22661 -1.03404,-0.35236 -1.58,-0.37c-0.82,0 -1.1,0.47 -1.1,1.39v0.76h2.64l-0.06,2.48h-2.41v6.92h-3.15v-6.84h-3.94z"/><path d="M255.66,224.44412c2.36,0 4.08,1.93 4.08,5c0.08497,1.31831 -0.37374,2.61389 -1.26931,3.58503c-0.89557,0.97115 -2.14983,1.53308 -3.47069,1.55497c-0.67796,-0.00839 -1.35131,-0.11275 -2,-0.31v4.26h-3.15v-13.62l3.15,-0.39v1.21c0.66814,-0.78191 1.6323,-1.24949 2.66,-1.29zM253,231.81412c0.43348,0.27201 0.93855,0.40786 1.45,0.39c1.36,0 2.13,-1.06 2.13,-2.64c0,-1.58 -0.69,-2.6 -2,-2.6c-0.5876,-0.0086 -1.15506,0.21408 -1.58,0.62z"/><path d="M266.66,233.12412c-0.62802,0.90117 -1.65169,1.44465 -2.75,1.46c-0.73723,0.04078 -1.46006,-0.21554 -2.00691,-0.71165c-0.54685,-0.49611 -0.87212,-1.19065 -0.90309,-1.92835c0,-1.81 1.36,-3.26 5.64,-3.38v-0.19c0,-1 -0.52,-1.45 -1.68,-1.45c-1.14038,0.09106 -2.24666,0.4325 -3.24,1l-0.65,-2.34c1.34901,-0.72053 2.85078,-1.10797 4.38,-1.13c3.29,0 4.38,1.5 4.34,4.16v2.82c0,0.66 0.12,0.72 0.78,0.78l-0.31,2.26c-2.07,0.26 -3.09,-0.29 -3.52,-1.34zM266.66,230.03412c-2,0.23 -2.67,0.6 -2.67,1.44c0.01732,0.29352 0.15466,0.56697 0.37976,0.75613c0.2251,0.18916 0.51812,0.27736 0.81024,0.24387c0.56128,0.0038 1.09833,-0.22844 1.48,-0.64z"/><path d="M275.81,234.58412c-2.36,0 -3.63,-1 -3.5,-3.46l0.14,-3.63l-1.45,-0.24l0.06,-2l1.43,-0.47v-2.17h3v2.27h2.51l-0.06,2.48h-2.54l-0.11,3.42c0,0.88 0.48,1.25 1.25,1.25c0.42753,-0.0144 0.84981,-0.09885 1.25,-0.25l0.37,2.46c-0.75826,0.24633 -1.55302,0.36132 -2.35,0.34z"/><path d="M284.26,234.58412c-3.15,0 -5.16,-1.76 -5.16,-5c0,-3.24 2.05,-5.14 5.24,-5.14c1.20502,-0.02428 2.39725,0.25058 3.47,0.8l-0.62,2.34c-0.7658,-0.45145 -1.6317,-0.70572 -2.52,-0.74c-0.67436,-0.02047 -1.32371,0.25618 -1.7761,0.7567c-0.4524,0.50052 -0.66221,1.17444 -0.5739,1.8433c-0.08954,0.68669 0.12967,1.37778 0.59866,1.8873c0.469,0.50952 1.13959,0.78515 1.83134,0.75269c0.89143,0.0049 1.76572,-0.24489 2.52,-0.72l0.47,2.4c-1.07043,0.5674 -2.26886,0.84978 -3.48,0.82z"/><path d="M295.73,234.27412v-5.63c0,-1.15 -0.51,-1.52 -1.31,-1.52c-0.65534,0.01494 -1.28209,0.27133 -1.76,0.72v6.43h-3.16v-13.53l3.16,-0.39v5.71c0.78462,-0.97974 1.95577,-1.57078 3.21,-1.62c1.88,0 3,1.25 3,3.28v6.55z"/><path d="M222.94788,282.69827l3.89127,7.3084h-3.48253l-2.32168,-5.15021l-2.28898,5.15021h-3.40077l3.79317,-7.1776l-3.49887,-6.34375h3.48253l1.94563,4.33272l2.04374,-4.33272h3.40078z"/><path d="M232.19813,276.14197c1.01369,0 1.89113,0.14715 2.63233,0.44145c0.75209,0.2834 1.43334,0.7194 2.04374,1.30799l-1.47149,1.73308c-0.92649,-0.75209 -1.91839,-1.12814 -2.97568,-1.12814c-0.5559,0 -0.99734,0.11444 -1.32434,0.34334c-0.327,0.218 -0.4905,0.545 -0.4905,0.981c0,0.2943 0.07085,0.53955 0.21255,0.73575c0.1417,0.1853 0.3924,0.36515 0.75209,0.53955c0.37059,0.1635 0.92104,0.35969 1.65134,0.58859c1.38429,0.4469 2.39798,0.99189 3.04107,1.63499c0.654,0.64309 0.981,1.55869 0.981,2.74678c0,0.83929 -0.218,1.58594 -0.654,2.23994c-0.42509,0.64309 -1.04094,1.14449 -1.84753,1.50418c-0.8066,0.3488 -1.76033,0.5232 -2.86123,0.5232c-1.11179,0 -2.09278,-0.1744 -2.94298,-0.5232c-0.85019,-0.3488 -1.58049,-0.81749 -2.19088,-1.40608l1.61864,-1.78214c0.52319,0.4469 1.05729,0.78479 1.60229,1.01369c0.5559,0.218 1.16084,0.327 1.81484,0.327c0.6649,0 1.18809,-0.14714 1.56959,-0.44144c0.3815,-0.2943 0.57224,-0.70305 0.57224,-1.22624c0,-0.3379 -0.07085,-0.62129 -0.21255,-0.85019c-0.1417,-0.2289 -0.3924,-0.43055 -0.75209,-0.60495c-0.3488,-0.1853 -0.85019,-0.3815 -1.50419,-0.58859c-1.50419,-0.4578 -2.57238,-1.01914 -3.20458,-1.68404c-0.6322,-0.6649 -0.94829,-1.50419 -0.94829,-2.51788c0,-0.7848 0.2071,-1.47149 0.6213,-2.06008c0.42509,-0.58859 1.00824,-1.04093 1.74943,-1.35703c0.7412,-0.327 1.58049,-0.4905 2.51788,-0.4905z"/><path d="M245.01593,279.76175c0.9047,0 1.60774,0.26141 2.10913,0.78426c0.5123,0.52285 0.76844,1.26006 0.76844,2.21164v7.26229h-3.09013v-6.76037c0,-0.50192 -0.0872,-0.84701 -0.2616,-1.03523c-0.1635,-0.19868 -0.39785,-0.29802 -0.70304,-0.29802c-0.6322,0 -1.23169,0.42351 -1.79849,1.27051v6.82312h-3.09013v-13.89719l3.09013,-0.29802v5.31733c0.42509,-0.4601 0.87744,-0.80519 1.35704,-1.03523c0.4796,-0.23004 1.01914,-0.34508 1.61864,-0.34508z"/><path d="M283.56299,275.80906v14.2109h-3.09013v-13.89719z"/><path d="M275.27463,280.15999c0.9047,0 1.60774,0.25156 2.10914,0.75471c0.5123,0.50315 0.76844,1.2126 0.76844,2.12833v6.98873h-3.09013v-6.50572c0,-0.48301 -0.08175,-0.8151 -0.24525,-0.99623c-0.1635,-0.1912 -0.40329,-0.2868 -0.71939,-0.2868c-0.6322,0 -1.23169,0.41761 -1.79849,1.25284v6.5359h-3.09013v-9.56988h2.69773l0.21255,1.13208c0.4469,-0.48301 0.92649,-0.84025 1.43878,-1.0717c0.5123,-0.24151 1.08454,-0.36227 1.71674,-0.36227z"/><path d="M266.78956,290.03177h-2.68138l-0.1308,-1.20756c-0.75209,1.0063 -1.79848,1.50945 -3.13917,1.50945c-0.94829,0 -1.66769,-0.26164 -2.15818,-0.78492c-0.4905,-0.53334 -0.73575,-1.27296 -0.73575,-2.21888v-6.86798h3.09013v6.50572c0,0.47296 0.08175,0.80504 0.24525,0.99623c0.1635,0.18114 0.4142,0.27169 0.75209,0.27169c0.6431,0 1.19899,-0.37232 1.66769,-1.11699v-6.65666h3.09013z"/><path d="M289.41733,280.46188l-3.13918,4.19627l3.40078,5.37363h-3.48253l-3.07378,-5.22269l3.15553,-4.3472z"/><path d="M195.47107,290.08056c-0.73212,-0.02185 -1.45685,-0.15331 -2.15,-0.39l-3,0.41v-13.86l3.16,-0.39v5.38c0.67424,-0.77953 1.64027,-1.24626 2.67,-1.29c2.35,0 4.05,1.93 4.05,5c0.0849,1.31661 -0.37247,2.61064 -1.26586,3.58147c-0.89339,0.97083 -2.14504,1.53395 -3.46415,1.55853zM195.15106,282.46056c-0.59697,-0.0017 -1.1697,0.23604 -1.59,0.66v4.19c0.43299,0.27316 0.93841,0.4091 1.45,0.39c1.35,0 2.13,-1.06 2.13,-2.64c0,-1.58 -0.75,-2.6 -1.99,-2.6z"/><path d="M207.78106,289.32056l-0.48,1.25c-1,2.78 -2.17,3.62 -4.17,3.62c-0.97706,0.01063 -1.94408,-0.19781 -2.83,-0.61l0.94,-2.4c0.45602,0.24968 0.96119,0.39646 1.48,0.43c0.67,0 1,-0.24 1.35,-1.16l0.27,-0.74l-3.73,-9.46h3.38l2,6.27l1.85,-6.27h3.36z"/><path d="M252.86107,290.05627h-3.16v-9.36l3.16,-0.39v1.4c0.41142,-0.89595 1.30412,-1.4729 2.29,-1.48c0.55042,0.00057 1.09253,0.13439 1.58,0.39l-0.64,2.75c-0.3649,-0.18851 -0.76928,-0.28789 -1.18,-0.29c-0.87662,0.04569 -1.65159,0.5843 -2,1.39z"/></g></g></svg>